ISO-10303-21;
HEADER;
/* Generated by software containing ST-Developer
 * from STEP Tools, Inc. (www.steptools.com) 
 */

FILE_DESCRIPTION(
/* description */ (''),
/* implementation_level */ '2;1');

FILE_NAME(
/* name */ 'TopShell.step',
/* time_stamp */ '2026-07-13T19:58:33+05:30',
/* author */ (''),
/* organization */ (''),
/* preprocessor_version */ 'ST-DEVELOPER v20.1',
/* originating_system */ 'Autodesk Translation Framework v15.8.0.0',
/* authorisation */ '');

FILE_SCHEMA (('AUTOMOTIVE_DESIGN { 1 0 10303 214 3 1 1 }'));
ENDSEC;

DATA;
#10=MECHANICAL_DESIGN_GEOMETRIC_PRESENTATION_REPRESENTATION('',(#13),#1741);
#11=SHAPE_REPRESENTATION_RELATIONSHIP('SRR','None',#1748,#12);
#12=ADVANCED_BREP_SHAPE_REPRESENTATION('',(#14),#1740);
#13=STYLED_ITEM('',(#1757),#14);
#14=MANIFOLD_SOLID_BREP('Body1',#997);
#15=FACE_BOUND('',#161,.T.);
#16=FACE_BOUND('',#163,.T.);
#17=FACE_BOUND('',#165,.T.);
#18=FACE_BOUND('',#166,.T.);
#19=(
BOUNDED_SURFACE()
B_SPLINE_SURFACE(2,2,((#1628,#1629,#1630),(#1631,#1632,#1633),(#1634,#1635,
#1636)),.UNSPECIFIED.,.F.,.F.,.F.)
B_SPLINE_SURFACE_WITH_KNOTS((3,3),(3,3),(-1.5707963267949,0.),(-1.5707963267949,
0.),.UNSPECIFIED.)
GEOMETRIC_REPRESENTATION_ITEM()
RATIONAL_B_SPLINE_SURFACE(((1.,0.707106781186548,1.),(0.707106781186543,
0.499999999999997,0.707106781186543),(1.,0.707106781186548,1.)))
REPRESENTATION_ITEM('')
SURFACE()
);
#20=(
BOUNDED_SURFACE()
B_SPLINE_SURFACE(2,2,((#1643,#1644,#1645),(#1646,#1647,#1648),(#1649,#1650,
#1651)),.UNSPECIFIED.,.F.,.F.,.F.)
B_SPLINE_SURFACE_WITH_KNOTS((3,3),(3,3),(-1.5707963267949,0.),(-3.14159265358979,
-1.5707963267949),.UNSPECIFIED.)
GEOMETRIC_REPRESENTATION_ITEM()
RATIONAL_B_SPLINE_SURFACE(((1.,0.707106781186548,1.),(0.707106781186543,
0.499999999999997,0.707106781186543),(1.,0.707106781186548,1.)))
REPRESENTATION_ITEM('')
SURFACE()
);
#21=(
BOUNDED_SURFACE()
B_SPLINE_SURFACE(2,2,((#1657,#1658,#1659),(#1660,#1661,#1662),(#1663,#1664,
#1665)),.UNSPECIFIED.,.F.,.F.,.F.)
B_SPLINE_SURFACE_WITH_KNOTS((3,3),(3,3),(-1.5707963267949,0.),(1.5707963267949,
3.14159265358979),.UNSPECIFIED.)
GEOMETRIC_REPRESENTATION_ITEM()
RATIONAL_B_SPLINE_SURFACE(((1.,0.707106781186548,1.),(0.707106781186539,
0.499999999999994,0.707106781186539),(1.,0.707106781186548,1.)))
REPRESENTATION_ITEM('')
SURFACE()
);
#22=(
BOUNDED_SURFACE()
B_SPLINE_SURFACE(2,2,((#1673,#1674,#1675),(#1676,#1677,#1678),(#1679,#1680,
#1681)),.UNSPECIFIED.,.F.,.F.,.F.)
B_SPLINE_SURFACE_WITH_KNOTS((3,3),(3,3),(-1.5707963267949,0.),(0.,1.5707963267949),
 .UNSPECIFIED.)
GEOMETRIC_REPRESENTATION_ITEM()
RATIONAL_B_SPLINE_SURFACE(((1.,0.707106781186548,1.),(0.707106781186542,
0.499999999999996,0.707106781186542),(1.,0.707106781186548,1.)))
REPRESENTATION_ITEM('')
SURFACE()
);
#23=PLANE('',#1014);
#24=PLANE('',#1018);
#25=PLANE('',#1022);
#26=PLANE('',#1026);
#27=PLANE('',#1030);
#28=PLANE('',#1036);
#29=PLANE('',#1037);
#30=PLANE('',#1038);
#31=PLANE('',#1045);
#32=PLANE('',#1048);
#33=PLANE('',#1051);
#34=PLANE('',#1054);
#35=PLANE('',#1057);
#36=PLANE('',#1060);
#37=PLANE('',#1064);
#38=PLANE('',#1071);
#39=PLANE('',#1076);
#40=PLANE('',#1094);
#41=PLANE('',#1098);
#42=PLANE('',#1101);
#43=PLANE('',#1102);
#44=PLANE('',#1103);
#45=PLANE('',#1107);
#46=PLANE('',#1108);
#47=PLANE('',#1109);
#48=PLANE('',#1112);
#49=PLANE('',#1113);
#50=PLANE('',#1114);
#51=FACE_OUTER_BOUND('',#107,.T.);
#52=FACE_OUTER_BOUND('',#108,.T.);
#53=FACE_OUTER_BOUND('',#109,.T.);
#54=FACE_OUTER_BOUND('',#110,.T.);
#55=FACE_OUTER_BOUND('',#111,.T.);
#56=FACE_OUTER_BOUND('',#112,.T.);
#57=FACE_OUTER_BOUND('',#113,.T.);
#58=FACE_OUTER_BOUND('',#114,.T.);
#59=FACE_OUTER_BOUND('',#115,.T.);
#60=FACE_OUTER_BOUND('',#116,.T.);
#61=FACE_OUTER_BOUND('',#117,.T.);
#62=FACE_OUTER_BOUND('',#118,.T.);
#63=FACE_OUTER_BOUND('',#119,.T.);
#64=FACE_OUTER_BOUND('',#120,.T.);
#65=FACE_OUTER_BOUND('',#121,.T.);
#66=FACE_OUTER_BOUND('',#122,.T.);
#67=FACE_OUTER_BOUND('',#123,.T.);
#68=FACE_OUTER_BOUND('',#124,.T.);
#69=FACE_OUTER_BOUND('',#125,.T.);
#70=FACE_OUTER_BOUND('',#126,.T.);
#71=FACE_OUTER_BOUND('',#127,.T.);
#72=FACE_OUTER_BOUND('',#128,.T.);
#73=FACE_OUTER_BOUND('',#129,.T.);
#74=FACE_OUTER_BOUND('',#130,.T.);
#75=FACE_OUTER_BOUND('',#131,.T.);
#76=FACE_OUTER_BOUND('',#132,.T.);
#77=FACE_OUTER_BOUND('',#133,.T.);
#78=FACE_OUTER_BOUND('',#134,.T.);
#79=FACE_OUTER_BOUND('',#135,.T.);
#80=FACE_OUTER_BOUND('',#136,.T.);
#81=FACE_OUTER_BOUND('',#137,.T.);
#82=FACE_OUTER_BOUND('',#138,.T.);
#83=FACE_OUTER_BOUND('',#139,.T.);
#84=FACE_OUTER_BOUND('',#140,.T.);
#85=FACE_OUTER_BOUND('',#141,.T.);
#86=FACE_OUTER_BOUND('',#142,.T.);
#87=FACE_OUTER_BOUND('',#143,.T.);
#88=FACE_OUTER_BOUND('',#144,.T.);
#89=FACE_OUTER_BOUND('',#145,.T.);
#90=FACE_OUTER_BOUND('',#146,.T.);
#91=FACE_OUTER_BOUND('',#147,.T.);
#92=FACE_OUTER_BOUND('',#148,.T.);
#93=FACE_OUTER_BOUND('',#149,.T.);
#94=FACE_OUTER_BOUND('',#150,.T.);
#95=FACE_OUTER_BOUND('',#151,.T.);
#96=FACE_OUTER_BOUND('',#152,.T.);
#97=FACE_OUTER_BOUND('',#153,.T.);
#98=FACE_OUTER_BOUND('',#154,.T.);
#99=FACE_OUTER_BOUND('',#155,.T.);
#100=FACE_OUTER_BOUND('',#156,.T.);
#101=FACE_OUTER_BOUND('',#157,.T.);
#102=FACE_OUTER_BOUND('',#158,.T.);
#103=FACE_OUTER_BOUND('',#159,.T.);
#104=FACE_OUTER_BOUND('',#160,.T.);
#105=FACE_OUTER_BOUND('',#162,.T.);
#106=FACE_OUTER_BOUND('',#164,.T.);
#107=EDGE_LOOP('',(#633,#634,#635,#636));
#108=EDGE_LOOP('',(#637));
#109=EDGE_LOOP('',(#638,#639,#640,#641));
#110=EDGE_LOOP('',(#642));
#111=EDGE_LOOP('',(#643,#644,#645,#646));
#112=EDGE_LOOP('',(#647));
#113=EDGE_LOOP('',(#648,#649,#650,#651));
#114=EDGE_LOOP('',(#652));
#115=EDGE_LOOP('',(#653,#654,#655,#656));
#116=EDGE_LOOP('',(#657,#658,#659,#660,#661,#662,#663,#664));
#117=EDGE_LOOP('',(#665,#666,#667,#668));
#118=EDGE_LOOP('',(#669,#670,#671,#672));
#119=EDGE_LOOP('',(#673,#674,#675,#676));
#120=EDGE_LOOP('',(#677,#678,#679,#680,#681,#682,#683,#684,#685,#686));
#121=EDGE_LOOP('',(#687,#688,#689,#690));
#122=EDGE_LOOP('',(#691,#692,#693,#694));
#123=EDGE_LOOP('',(#695,#696,#697,#698));
#124=EDGE_LOOP('',(#699,#700,#701,#702));
#125=EDGE_LOOP('',(#703,#704,#705,#706));
#126=EDGE_LOOP('',(#707,#708,#709,#710,#711,#712,#713,#714,#715,#716));
#127=EDGE_LOOP('',(#717,#718,#719,#720));
#128=EDGE_LOOP('',(#721,#722,#723,#724));
#129=EDGE_LOOP('',(#725,#726,#727,#728));
#130=EDGE_LOOP('',(#729,#730,#731,#732));
#131=EDGE_LOOP('',(#733,#734,#735,#736));
#132=EDGE_LOOP('',(#737,#738,#739,#740));
#133=EDGE_LOOP('',(#741,#742,#743,#744));
#134=EDGE_LOOP('',(#745,#746,#747,#748));
#135=EDGE_LOOP('',(#749,#750,#751,#752));
#136=EDGE_LOOP('',(#753,#754,#755,#756,#757,#758,#759,#760));
#137=EDGE_LOOP('',(#761,#762,#763,#764,#765,#766,#767,#768,#769,#770));
#138=EDGE_LOOP('',(#771,#772,#773,#774));
#139=EDGE_LOOP('',(#775,#776,#777,#778));
#140=EDGE_LOOP('',(#779,#780,#781,#782));
#141=EDGE_LOOP('',(#783,#784,#785,#786));
#142=EDGE_LOOP('',(#787,#788,#789,#790));
#143=EDGE_LOOP('',(#791,#792,#793,#794));
#144=EDGE_LOOP('',(#795,#796,#797,#798));
#145=EDGE_LOOP('',(#799,#800,#801,#802));
#146=EDGE_LOOP('',(#803,#804,#805,#806));
#147=EDGE_LOOP('',(#807,#808,#809,#810,#811,#812,#813,#814));
#148=EDGE_LOOP('',(#815,#816,#817,#818));
#149=EDGE_LOOP('',(#819,#820,#821,#822));
#150=EDGE_LOOP('',(#823,#824,#825,#826));
#151=EDGE_LOOP('',(#827,#828,#829,#830,#831,#832,#833,#834,#835,#836));
#152=EDGE_LOOP('',(#837,#838,#839,#840));
#153=EDGE_LOOP('',(#841,#842,#843,#844,#845,#846,#847,#848,#849,#850));
#154=EDGE_LOOP('',(#851,#852,#853,#854));
#155=EDGE_LOOP('',(#855,#856,#857,#858));
#156=EDGE_LOOP('',(#859,#860,#861,#862));
#157=EDGE_LOOP('',(#863,#864,#865,#866,#867,#868,#869,#870,#871,#872));
#158=EDGE_LOOP('',(#873,#874,#875,#876));
#159=EDGE_LOOP('',(#877,#878,#879,#880));
#160=EDGE_LOOP('',(#881,#882,#883,#884,#885,#886,#887,#888,#889,#890));
#161=EDGE_LOOP('',(#891));
#162=EDGE_LOOP('',(#892,#893,#894,#895,#896,#897,#898,#899,#900,#901));
#163=EDGE_LOOP('',(#902));
#164=EDGE_LOOP('',(#903,#904,#905,#906,#907,#908,#909,#910,#911,#912,#913,
#914));
#165=EDGE_LOOP('',(#915));
#166=EDGE_LOOP('',(#916));
#167=LINE('',#1420,#257);
#168=LINE('',#1427,#258);
#169=LINE('',#1434,#259);
#170=LINE('',#1441,#260);
#171=LINE('',#1449,#261);
#172=LINE('',#1452,#262);
#173=LINE('',#1456,#263);
#174=LINE('',#1460,#264);
#175=LINE('',#1463,#265);
#176=LINE('',#1465,#266);
#177=LINE('',#1471,#267);
#178=LINE('',#1472,#268);
#179=LINE('',#1475,#269);
#180=LINE('',#1476,#270);
#181=LINE('',#1480,#271);
#182=LINE('',#1482,#272);
#183=LINE('',#1484,#273);
#184=LINE('',#1485,#274);
#185=LINE('',#1488,#275);
#186=LINE('',#1492,#276);
#187=LINE('',#1496,#277);
#188=LINE('',#1498,#278);
#189=LINE('',#1502,#279);
#190=LINE('',#1507,#280);
#191=LINE('',#1510,#281);
#192=LINE('',#1511,#282);
#193=LINE('',#1515,#283);
#194=LINE('',#1518,#284);
#195=LINE('',#1520,#285);
#196=LINE('',#1521,#286);
#197=LINE('',#1524,#287);
#198=LINE('',#1528,#288);
#199=LINE('',#1530,#289);
#200=LINE('',#1532,#290);
#201=LINE('',#1534,#291);
#202=LINE('',#1538,#292);
#203=LINE('',#1541,#293);
#204=LINE('',#1544,#294);
#205=LINE('',#1546,#295);
#206=LINE('',#1547,#296);
#207=LINE('',#1550,#297);
#208=LINE('',#1554,#298);
#209=LINE('',#1556,#299);
#210=LINE('',#1557,#300);
#211=LINE('',#1563,#301);
#212=LINE('',#1565,#302);
#213=LINE('',#1567,#303);
#214=LINE('',#1568,#304);
#215=LINE('',#1573,#305);
#216=LINE('',#1578,#306);
#217=LINE('',#1579,#307);
#218=LINE('',#1580,#308);
#219=LINE('',#1585,#309);
#220=LINE('',#1592,#310);
#221=LINE('',#1595,#311);
#222=LINE('',#1601,#312);
#223=LINE('',#1605,#313);
#224=LINE('',#1609,#314);
#225=LINE('',#1612,#315);
#226=LINE('',#1615,#316);
#227=LINE('',#1617,#317);
#228=LINE('',#1619,#318);
#229=LINE('',#1621,#319);
#230=LINE('',#1623,#320);
#231=LINE('',#1624,#321);
#232=LINE('',#1641,#322);
#233=LINE('',#1655,#323);
#234=LINE('',#1671,#324);
#235=LINE('',#1686,#325);
#236=LINE('',#1689,#326);
#237=LINE('',#1692,#327);
#238=LINE('',#1693,#328);
#239=LINE('',#1697,#329);
#240=LINE('',#1700,#330);
#241=LINE('',#1701,#331);
#242=LINE('',#1706,#332);
#243=LINE('',#1707,#333);
#244=LINE('',#1708,#334);
#245=LINE('',#1710,#335);
#246=LINE('',#1714,#336);
#247=LINE('',#1715,#337);
#248=LINE('',#1716,#338);
#249=LINE('',#1717,#339);
#250=LINE('',#1721,#340);
#251=LINE('',#1724,#341);
#252=LINE('',#1725,#342);
#253=LINE('',#1728,#343);
#254=LINE('',#1729,#344);
#255=LINE('',#1730,#345);
#256=LINE('',#1732,#346);
#257=VECTOR('',#1121,0.8115);
#258=VECTOR('',#1130,0.8115);
#259=VECTOR('',#1139,0.8115);
#260=VECTOR('',#1148,0.8115);
#261=VECTOR('',#1157,10.);
#262=VECTOR('',#1160,10.);
#263=VECTOR('',#1163,10.);
#264=VECTOR('',#1166,10.);
#265=VECTOR('',#1169,10.);
#266=VECTOR('',#1170,10.);
#267=VECTOR('',#1177,10.);
#268=VECTOR('',#1178,10.);
#269=VECTOR('',#1181,10.);
#270=VECTOR('',#1182,10.);
#271=VECTOR('',#1185,10.);
#272=VECTOR('',#1186,10.);
#273=VECTOR('',#1187,10.);
#274=VECTOR('',#1188,10.);
#275=VECTOR('',#1191,10.);
#276=VECTOR('',#1194,10.);
#277=VECTOR('',#1197,10.);
#278=VECTOR('',#1198,10.);
#279=VECTOR('',#1201,10.);
#280=VECTOR('',#1208,10.);
#281=VECTOR('',#1211,10.);
#282=VECTOR('',#1212,10.);
#283=VECTOR('',#1217,10.);
#284=VECTOR('',#1220,10.);
#285=VECTOR('',#1221,10.);
#286=VECTOR('',#1222,10.);
#287=VECTOR('',#1225,10.);
#288=VECTOR('',#1230,10.);
#289=VECTOR('',#1231,10.);
#290=VECTOR('',#1232,10.);
#291=VECTOR('',#1233,10.);
#292=VECTOR('',#1236,10.);
#293=VECTOR('',#1239,10.);
#294=VECTOR('',#1242,10.);
#295=VECTOR('',#1243,10.);
#296=VECTOR('',#1244,10.);
#297=VECTOR('',#1247,10.);
#298=VECTOR('',#1252,10.);
#299=VECTOR('',#1253,10.);
#300=VECTOR('',#1254,10.);
#301=VECTOR('',#1261,10.);
#302=VECTOR('',#1262,10.);
#303=VECTOR('',#1263,10.);
#304=VECTOR('',#1264,10.);
#305=VECTOR('',#1269,10.);
#306=VECTOR('',#1274,10.);
#307=VECTOR('',#1275,10.);
#308=VECTOR('',#1276,10.);
#309=VECTOR('',#1281,10.);
#310=VECTOR('',#1288,10.);
#311=VECTOR('',#1291,10.);
#312=VECTOR('',#1296,10.);
#313=VECTOR('',#1299,10.);
#314=VECTOR('',#1302,10.);
#315=VECTOR('',#1305,10.);
#316=VECTOR('',#1308,10.);
#317=VECTOR('',#1309,10.);
#318=VECTOR('',#1310,10.);
#319=VECTOR('',#1311,10.);
#320=VECTOR('',#1312,10.);
#321=VECTOR('',#1313,10.);
#322=VECTOR('',#1326,10.);
#323=VECTOR('',#1333,10.);
#324=VECTOR('',#1342,10.);
#325=VECTOR('',#1351,10.);
#326=VECTOR('',#1354,10.);
#327=VECTOR('',#1357,10.);
#328=VECTOR('',#1358,10.);
#329=VECTOR('',#1363,10.);
#330=VECTOR('',#1366,10.);
#331=VECTOR('',#1367,10.);
#332=VECTOR('',#1374,10.);
#333=VECTOR('',#1375,10.);
#334=VECTOR('',#1376,10.);
#335=VECTOR('',#1379,10.);
#336=VECTOR('',#1382,10.);
#337=VECTOR('',#1383,10.);
#338=VECTOR('',#1384,10.);
#339=VECTOR('',#1385,10.);
#340=VECTOR('',#1392,10.);
#341=VECTOR('',#1395,10.);
#342=VECTOR('',#1396,10.);
#343=VECTOR('',#1399,10.);
#344=VECTOR('',#1400,10.);
#345=VECTOR('',#1401,10.);
#346=VECTOR('',#1404,10.);
#347=CIRCLE('',#1012,0.8115);
#348=CIRCLE('',#1013,0.8115);
#349=CIRCLE('',#1016,0.8115);
#350=CIRCLE('',#1017,0.8115);
#351=CIRCLE('',#1020,0.8115);
#352=CIRCLE('',#1021,0.8115);
#353=CIRCLE('',#1024,0.8115);
#354=CIRCLE('',#1025,0.8115);
#355=CIRCLE('',#1028,3.2);
#356=CIRCLE('',#1029,3.2);
#357=CIRCLE('',#1031,3.2);
#358=CIRCLE('',#1032,3.2);
#359=CIRCLE('',#1033,3.2);
#360=CIRCLE('',#1035,3.2);
#361=CIRCLE('',#1039,1.25);
#362=CIRCLE('',#1040,1.25);
#363=CIRCLE('',#1041,3.88);
#364=CIRCLE('',#1042,3.88);
#365=CIRCLE('',#1044,1.25);
#366=CIRCLE('',#1047,1.25);
#367=CIRCLE('',#1050,3.88);
#368=CIRCLE('',#1052,0.5);
#369=CIRCLE('',#1053,0.5);
#370=CIRCLE('',#1056,0.5);
#371=CIRCLE('',#1059,0.5);
#372=CIRCLE('',#1062,0.5);
#373=CIRCLE('',#1063,0.5);
#374=CIRCLE('',#1066,0.5);
#375=CIRCLE('',#1067,0.5);
#376=CIRCLE('',#1069,3.5);
#377=CIRCLE('',#1070,3.5);
#378=CIRCLE('',#1072,1.5);
#379=CIRCLE('',#1073,1.5);
#380=CIRCLE('',#1074,1.5);
#381=CIRCLE('',#1075,1.5);
#382=CIRCLE('',#1078,1.99999999999999);
#383=CIRCLE('',#1079,2.);
#384=CIRCLE('',#1080,3.5);
#385=CIRCLE('',#1081,2.);
#386=CIRCLE('',#1083,2.);
#387=CIRCLE('',#1084,2.);
#388=CIRCLE('',#1086,2.);
#389=CIRCLE('',#1087,3.5);
#390=CIRCLE('',#1088,2.);
#391=CIRCLE('',#1090,2.);
#392=CIRCLE('',#1091,3.5);
#393=CIRCLE('',#1093,3.5);
#394=CIRCLE('',#1095,3.88);
#395=CIRCLE('',#1097,3.5);
#396=CIRCLE('',#1100,3.5);
#397=CIRCLE('',#1105,3.2);
#398=CIRCLE('',#1111,3.2);
#399=VERTEX_POINT('',#1417);
#400=VERTEX_POINT('',#1419);
#401=VERTEX_POINT('',#1424);
#402=VERTEX_POINT('',#1426);
#403=VERTEX_POINT('',#1431);
#404=VERTEX_POINT('',#1433);
#405=VERTEX_POINT('',#1438);
#406=VERTEX_POINT('',#1440);
#407=VERTEX_POINT('',#1445);
#408=VERTEX_POINT('',#1446);
#409=VERTEX_POINT('',#1448);
#410=VERTEX_POINT('',#1450);
#411=VERTEX_POINT('',#1454);
#412=VERTEX_POINT('',#1455);
#413=VERTEX_POINT('',#1457);
#414=VERTEX_POINT('',#1459);
#415=VERTEX_POINT('',#1461);
#416=VERTEX_POINT('',#1464);
#417=VERTEX_POINT('',#1468);
#418=VERTEX_POINT('',#1469);
#419=VERTEX_POINT('',#1474);
#420=VERTEX_POINT('',#1478);
#421=VERTEX_POINT('',#1479);
#422=VERTEX_POINT('',#1481);
#423=VERTEX_POINT('',#1483);
#424=VERTEX_POINT('',#1487);
#425=VERTEX_POINT('',#1489);
#426=VERTEX_POINT('',#1491);
#427=VERTEX_POINT('',#1493);
#428=VERTEX_POINT('',#1495);
#429=VERTEX_POINT('',#1497);
#430=VERTEX_POINT('',#1499);
#431=VERTEX_POINT('',#1501);
#432=VERTEX_POINT('',#1505);
#433=VERTEX_POINT('',#1509);
#434=VERTEX_POINT('',#1513);
#435=VERTEX_POINT('',#1517);
#436=VERTEX_POINT('',#1519);
#437=VERTEX_POINT('',#1523);
#438=VERTEX_POINT('',#1527);
#439=VERTEX_POINT('',#1529);
#440=VERTEX_POINT('',#1531);
#441=VERTEX_POINT('',#1533);
#442=VERTEX_POINT('',#1535);
#443=VERTEX_POINT('',#1537);
#444=VERTEX_POINT('',#1539);
#445=VERTEX_POINT('',#1543);
#446=VERTEX_POINT('',#1545);
#447=VERTEX_POINT('',#1549);
#448=VERTEX_POINT('',#1553);
#449=VERTEX_POINT('',#1555);
#450=VERTEX_POINT('',#1561);
#451=VERTEX_POINT('',#1562);
#452=VERTEX_POINT('',#1564);
#453=VERTEX_POINT('',#1566);
#454=VERTEX_POINT('',#1570);
#455=VERTEX_POINT('',#1572);
#456=VERTEX_POINT('',#1576);
#457=VERTEX_POINT('',#1577);
#458=VERTEX_POINT('',#1582);
#459=VERTEX_POINT('',#1584);
#460=VERTEX_POINT('',#1588);
#461=VERTEX_POINT('',#1589);
#462=VERTEX_POINT('',#1591);
#463=VERTEX_POINT('',#1593);
#464=VERTEX_POINT('',#1597);
#465=VERTEX_POINT('',#1598);
#466=VERTEX_POINT('',#1600);
#467=VERTEX_POINT('',#1602);
#468=VERTEX_POINT('',#1604);
#469=VERTEX_POINT('',#1606);
#470=VERTEX_POINT('',#1608);
#471=VERTEX_POINT('',#1610);
#472=VERTEX_POINT('',#1614);
#473=VERTEX_POINT('',#1616);
#474=VERTEX_POINT('',#1618);
#475=VERTEX_POINT('',#1620);
#476=VERTEX_POINT('',#1622);
#477=VERTEX_POINT('',#1637);
#478=VERTEX_POINT('',#1654);
#479=VERTEX_POINT('',#1666);
#480=VERTEX_POINT('',#1670);
#481=VERTEX_POINT('',#1684);
#482=VERTEX_POINT('',#1688);
#483=VERTEX_POINT('',#1690);
#484=VERTEX_POINT('',#1695);
#485=VERTEX_POINT('',#1699);
#486=VERTEX_POINT('',#1705);
#487=VERTEX_POINT('',#1712);
#488=VERTEX_POINT('',#1713);
#489=VERTEX_POINT('',#1723);
#490=VERTEX_POINT('',#1727);
#491=EDGE_CURVE('',#399,#399,#347,.T.);
#492=EDGE_CURVE('',#399,#400,#167,.T.);
#493=EDGE_CURVE('',#400,#400,#348,.T.);
#494=EDGE_CURVE('',#401,#401,#349,.T.);
#495=EDGE_CURVE('',#401,#402,#168,.T.);
#496=EDGE_CURVE('',#402,#402,#350,.T.);
#497=EDGE_CURVE('',#403,#403,#351,.T.);
#498=EDGE_CURVE('',#403,#404,#169,.T.);
#499=EDGE_CURVE('',#404,#404,#352,.T.);
#500=EDGE_CURVE('',#405,#405,#353,.T.);
#501=EDGE_CURVE('',#405,#406,#170,.T.);
#502=EDGE_CURVE('',#406,#406,#354,.T.);
#503=EDGE_CURVE('',#407,#408,#355,.T.);
#504=EDGE_CURVE('',#407,#409,#171,.T.);
#505=EDGE_CURVE('',#409,#410,#356,.T.);
#506=EDGE_CURVE('',#410,#408,#172,.T.);
#507=EDGE_CURVE('',#411,#412,#173,.T.);
#508=EDGE_CURVE('',#413,#412,#357,.T.);
#509=EDGE_CURVE('',#413,#414,#174,.T.);
#510=EDGE_CURVE('',#415,#414,#358,.T.);
#511=EDGE_CURVE('',#415,#410,#175,.T.);
#512=EDGE_CURVE('',#409,#416,#176,.T.);
#513=EDGE_CURVE('',#411,#416,#359,.T.);
#514=EDGE_CURVE('',#417,#418,#360,.T.);
#515=EDGE_CURVE('',#417,#413,#177,.T.);
#516=EDGE_CURVE('',#412,#418,#178,.T.);
#517=EDGE_CURVE('',#419,#417,#179,.T.);
#518=EDGE_CURVE('',#414,#419,#180,.T.);
#519=EDGE_CURVE('',#420,#421,#181,.T.);
#520=EDGE_CURVE('',#422,#420,#182,.T.);
#521=EDGE_CURVE('',#423,#422,#183,.T.);
#522=EDGE_CURVE('',#423,#421,#184,.T.);
#523=EDGE_CURVE('',#421,#424,#185,.T.);
#524=EDGE_CURVE('',#425,#423,#361,.T.);
#525=EDGE_CURVE('',#426,#425,#186,.T.);
#526=EDGE_CURVE('',#427,#426,#362,.T.);
#527=EDGE_CURVE('',#428,#427,#187,.T.);
#528=EDGE_CURVE('',#429,#428,#188,.T.);
#529=EDGE_CURVE('',#429,#430,#363,.T.);
#530=EDGE_CURVE('',#431,#430,#189,.T.);
#531=EDGE_CURVE('',#431,#424,#364,.T.);
#532=EDGE_CURVE('',#422,#432,#365,.T.);
#533=EDGE_CURVE('',#432,#425,#190,.T.);
#534=EDGE_CURVE('',#426,#433,#191,.T.);
#535=EDGE_CURVE('',#432,#433,#192,.T.);
#536=EDGE_CURVE('',#433,#434,#366,.T.);
#537=EDGE_CURVE('',#434,#427,#193,.T.);
#538=EDGE_CURVE('',#431,#435,#194,.T.);
#539=EDGE_CURVE('',#436,#430,#195,.T.);
#540=EDGE_CURVE('',#435,#436,#196,.T.);
#541=EDGE_CURVE('',#424,#437,#197,.T.);
#542=EDGE_CURVE('',#437,#435,#367,.T.);
#543=EDGE_CURVE('',#408,#438,#198,.T.);
#544=EDGE_CURVE('',#439,#415,#199,.T.);
#545=EDGE_CURVE('',#440,#439,#200,.T.);
#546=EDGE_CURVE('',#440,#441,#201,.T.);
#547=EDGE_CURVE('',#442,#441,#368,.T.);
#548=EDGE_CURVE('',#442,#443,#202,.T.);
#549=EDGE_CURVE('',#444,#443,#369,.T.);
#550=EDGE_CURVE('',#444,#438,#203,.T.);
#551=EDGE_CURVE('',#443,#445,#204,.T.);
#552=EDGE_CURVE('',#446,#442,#205,.T.);
#553=EDGE_CURVE('',#445,#446,#206,.T.);
#554=EDGE_CURVE('',#441,#447,#207,.T.);
#555=EDGE_CURVE('',#446,#447,#370,.T.);
#556=EDGE_CURVE('',#438,#448,#208,.T.);
#557=EDGE_CURVE('',#449,#444,#209,.T.);
#558=EDGE_CURVE('',#448,#449,#210,.T.);
#559=EDGE_CURVE('',#449,#445,#371,.T.);
#560=EDGE_CURVE('',#450,#451,#211,.T.);
#561=EDGE_CURVE('',#452,#450,#212,.T.);
#562=EDGE_CURVE('',#453,#452,#213,.T.);
#563=EDGE_CURVE('',#451,#453,#214,.T.);
#564=EDGE_CURVE('',#452,#454,#372,.T.);
#565=EDGE_CURVE('',#454,#455,#215,.T.);
#566=EDGE_CURVE('',#453,#455,#373,.T.);
#567=EDGE_CURVE('',#456,#457,#216,.T.);
#568=EDGE_CURVE('',#455,#456,#217,.T.);
#569=EDGE_CURVE('',#457,#454,#218,.T.);
#570=EDGE_CURVE('',#457,#458,#374,.T.);
#571=EDGE_CURVE('',#458,#459,#219,.T.);
#572=EDGE_CURVE('',#456,#459,#375,.T.);
#573=EDGE_CURVE('',#460,#461,#376,.T.);
#574=EDGE_CURVE('',#460,#462,#220,.T.);
#575=EDGE_CURVE('',#463,#462,#377,.T.);
#576=EDGE_CURVE('',#463,#461,#221,.T.);
#577=EDGE_CURVE('',#464,#465,#378,.T.);
#578=EDGE_CURVE('',#466,#464,#222,.T.);
#579=EDGE_CURVE('',#467,#466,#379,.T.);
#580=EDGE_CURVE('',#468,#467,#223,.T.);
#581=EDGE_CURVE('',#469,#468,#380,.T.);
#582=EDGE_CURVE('',#470,#469,#224,.T.);
#583=EDGE_CURVE('',#471,#470,#381,.T.);
#584=EDGE_CURVE('',#465,#471,#225,.T.);
#585=EDGE_CURVE('',#448,#472,#226,.T.);
#586=EDGE_CURVE('',#447,#473,#227,.T.);
#587=EDGE_CURVE('',#474,#473,#228,.T.);
#588=EDGE_CURVE('',#475,#474,#229,.T.);
#589=EDGE_CURVE('',#476,#475,#230,.T.);
#590=EDGE_CURVE('',#472,#476,#231,.T.);
#591=EDGE_CURVE('',#476,#464,#382,.T.);
#592=EDGE_CURVE('',#466,#475,#383,.T.);
#593=EDGE_CURVE('',#475,#477,#384,.T.);
#594=EDGE_CURVE('',#467,#477,#385,.T.);
#595=EDGE_CURVE('',#477,#463,#232,.T.);
#596=EDGE_CURVE('',#468,#463,#386,.T.);
#597=EDGE_CURVE('',#469,#462,#387,.T.);
#598=EDGE_CURVE('',#462,#478,#233,.T.);
#599=EDGE_CURVE('',#470,#478,#388,.T.);
#600=EDGE_CURVE('',#478,#479,#389,.T.);
#601=EDGE_CURVE('',#471,#479,#390,.T.);
#602=EDGE_CURVE('',#479,#480,#234,.T.);
#603=EDGE_CURVE('',#465,#480,#391,.T.);
#604=EDGE_CURVE('',#480,#476,#392,.T.);
#605=EDGE_CURVE('',#472,#481,#393,.T.);
#606=EDGE_CURVE('',#480,#481,#235,.T.);
#607=EDGE_CURVE('',#437,#482,#236,.T.);
#608=EDGE_CURVE('',#436,#483,#394,.T.);
#609=EDGE_CURVE('',#481,#483,#237,.T.);
#610=EDGE_CURVE('',#482,#479,#238,.T.);
#611=EDGE_CURVE('',#482,#484,#395,.T.);
#612=EDGE_CURVE('',#478,#484,#239,.T.);
#613=EDGE_CURVE('',#461,#485,#240,.T.);
#614=EDGE_CURVE('',#485,#477,#241,.T.);
#615=EDGE_CURVE('',#485,#474,#396,.T.);
#616=EDGE_CURVE('',#484,#486,#242,.T.);
#617=EDGE_CURVE('',#451,#460,#243,.T.);
#618=EDGE_CURVE('',#459,#486,#244,.T.);
#619=EDGE_CURVE('',#473,#440,#245,.T.);
#620=EDGE_CURVE('',#487,#488,#246,.T.);
#621=EDGE_CURVE('',#487,#458,#247,.T.);
#622=EDGE_CURVE('',#418,#450,#248,.T.);
#623=EDGE_CURVE('',#488,#411,#249,.T.);
#624=EDGE_CURVE('',#439,#419,#397,.T.);
#625=EDGE_CURVE('',#483,#429,#250,.T.);
#626=EDGE_CURVE('',#428,#489,#251,.T.);
#627=EDGE_CURVE('',#489,#434,#252,.T.);
#628=EDGE_CURVE('',#490,#420,#253,.T.);
#629=EDGE_CURVE('',#416,#490,#254,.T.);
#630=EDGE_CURVE('',#489,#407,#255,.T.);
#631=EDGE_CURVE('',#486,#487,#256,.T.);
#632=EDGE_CURVE('',#488,#490,#398,.T.);
#633=ORIENTED_EDGE('',*,*,#491,.F.);
#634=ORIENTED_EDGE('',*,*,#492,.T.);
#635=ORIENTED_EDGE('',*,*,#493,.T.);
#636=ORIENTED_EDGE('',*,*,#492,.F.);
#637=ORIENTED_EDGE('',*,*,#493,.F.);
#638=ORIENTED_EDGE('',*,*,#494,.F.);
#639=ORIENTED_EDGE('',*,*,#495,.T.);
#640=ORIENTED_EDGE('',*,*,#496,.T.);
#641=ORIENTED_EDGE('',*,*,#495,.F.);
#642=ORIENTED_EDGE('',*,*,#496,.F.);
#643=ORIENTED_EDGE('',*,*,#497,.F.);
#644=ORIENTED_EDGE('',*,*,#498,.T.);
#645=ORIENTED_EDGE('',*,*,#499,.T.);
#646=ORIENTED_EDGE('',*,*,#498,.F.);
#647=ORIENTED_EDGE('',*,*,#499,.F.);
#648=ORIENTED_EDGE('',*,*,#500,.F.);
#649=ORIENTED_EDGE('',*,*,#501,.T.);
#650=ORIENTED_EDGE('',*,*,#502,.T.);
#651=ORIENTED_EDGE('',*,*,#501,.F.);
#652=ORIENTED_EDGE('',*,*,#502,.F.);
#653=ORIENTED_EDGE('',*,*,#503,.F.);
#654=ORIENTED_EDGE('',*,*,#504,.T.);
#655=ORIENTED_EDGE('',*,*,#505,.T.);
#656=ORIENTED_EDGE('',*,*,#506,.T.);
#657=ORIENTED_EDGE('',*,*,#507,.T.);
#658=ORIENTED_EDGE('',*,*,#508,.F.);
#659=ORIENTED_EDGE('',*,*,#509,.T.);
#660=ORIENTED_EDGE('',*,*,#510,.F.);
#661=ORIENTED_EDGE('',*,*,#511,.T.);
#662=ORIENTED_EDGE('',*,*,#505,.F.);
#663=ORIENTED_EDGE('',*,*,#512,.T.);
#664=ORIENTED_EDGE('',*,*,#513,.F.);
#665=ORIENTED_EDGE('',*,*,#514,.F.);
#666=ORIENTED_EDGE('',*,*,#515,.T.);
#667=ORIENTED_EDGE('',*,*,#508,.T.);
#668=ORIENTED_EDGE('',*,*,#516,.T.);
#669=ORIENTED_EDGE('',*,*,#517,.F.);
#670=ORIENTED_EDGE('',*,*,#518,.F.);
#671=ORIENTED_EDGE('',*,*,#509,.F.);
#672=ORIENTED_EDGE('',*,*,#515,.F.);
#673=ORIENTED_EDGE('',*,*,#519,.F.);
#674=ORIENTED_EDGE('',*,*,#520,.F.);
#675=ORIENTED_EDGE('',*,*,#521,.F.);
#676=ORIENTED_EDGE('',*,*,#522,.T.);
#677=ORIENTED_EDGE('',*,*,#523,.F.);
#678=ORIENTED_EDGE('',*,*,#522,.F.);
#679=ORIENTED_EDGE('',*,*,#524,.F.);
#680=ORIENTED_EDGE('',*,*,#525,.F.);
#681=ORIENTED_EDGE('',*,*,#526,.F.);
#682=ORIENTED_EDGE('',*,*,#527,.F.);
#683=ORIENTED_EDGE('',*,*,#528,.F.);
#684=ORIENTED_EDGE('',*,*,#529,.T.);
#685=ORIENTED_EDGE('',*,*,#530,.F.);
#686=ORIENTED_EDGE('',*,*,#531,.T.);
#687=ORIENTED_EDGE('',*,*,#532,.T.);
#688=ORIENTED_EDGE('',*,*,#533,.T.);
#689=ORIENTED_EDGE('',*,*,#524,.T.);
#690=ORIENTED_EDGE('',*,*,#521,.T.);
#691=ORIENTED_EDGE('',*,*,#534,.F.);
#692=ORIENTED_EDGE('',*,*,#525,.T.);
#693=ORIENTED_EDGE('',*,*,#533,.F.);
#694=ORIENTED_EDGE('',*,*,#535,.T.);
#695=ORIENTED_EDGE('',*,*,#526,.T.);
#696=ORIENTED_EDGE('',*,*,#534,.T.);
#697=ORIENTED_EDGE('',*,*,#536,.T.);
#698=ORIENTED_EDGE('',*,*,#537,.T.);
#699=ORIENTED_EDGE('',*,*,#538,.F.);
#700=ORIENTED_EDGE('',*,*,#530,.T.);
#701=ORIENTED_EDGE('',*,*,#539,.F.);
#702=ORIENTED_EDGE('',*,*,#540,.F.);
#703=ORIENTED_EDGE('',*,*,#541,.F.);
#704=ORIENTED_EDGE('',*,*,#531,.F.);
#705=ORIENTED_EDGE('',*,*,#538,.T.);
#706=ORIENTED_EDGE('',*,*,#542,.F.);
#707=ORIENTED_EDGE('',*,*,#543,.F.);
#708=ORIENTED_EDGE('',*,*,#506,.F.);
#709=ORIENTED_EDGE('',*,*,#511,.F.);
#710=ORIENTED_EDGE('',*,*,#544,.F.);
#711=ORIENTED_EDGE('',*,*,#545,.F.);
#712=ORIENTED_EDGE('',*,*,#546,.T.);
#713=ORIENTED_EDGE('',*,*,#547,.F.);
#714=ORIENTED_EDGE('',*,*,#548,.T.);
#715=ORIENTED_EDGE('',*,*,#549,.F.);
#716=ORIENTED_EDGE('',*,*,#550,.T.);
#717=ORIENTED_EDGE('',*,*,#551,.F.);
#718=ORIENTED_EDGE('',*,*,#548,.F.);
#719=ORIENTED_EDGE('',*,*,#552,.F.);
#720=ORIENTED_EDGE('',*,*,#553,.F.);
#721=ORIENTED_EDGE('',*,*,#552,.T.);
#722=ORIENTED_EDGE('',*,*,#547,.T.);
#723=ORIENTED_EDGE('',*,*,#554,.T.);
#724=ORIENTED_EDGE('',*,*,#555,.F.);
#725=ORIENTED_EDGE('',*,*,#556,.F.);
#726=ORIENTED_EDGE('',*,*,#550,.F.);
#727=ORIENTED_EDGE('',*,*,#557,.F.);
#728=ORIENTED_EDGE('',*,*,#558,.F.);
#729=ORIENTED_EDGE('',*,*,#557,.T.);
#730=ORIENTED_EDGE('',*,*,#549,.T.);
#731=ORIENTED_EDGE('',*,*,#551,.T.);
#732=ORIENTED_EDGE('',*,*,#559,.F.);
#733=ORIENTED_EDGE('',*,*,#560,.F.);
#734=ORIENTED_EDGE('',*,*,#561,.F.);
#735=ORIENTED_EDGE('',*,*,#562,.F.);
#736=ORIENTED_EDGE('',*,*,#563,.F.);
#737=ORIENTED_EDGE('',*,*,#562,.T.);
#738=ORIENTED_EDGE('',*,*,#564,.T.);
#739=ORIENTED_EDGE('',*,*,#565,.T.);
#740=ORIENTED_EDGE('',*,*,#566,.F.);
#741=ORIENTED_EDGE('',*,*,#567,.F.);
#742=ORIENTED_EDGE('',*,*,#568,.F.);
#743=ORIENTED_EDGE('',*,*,#565,.F.);
#744=ORIENTED_EDGE('',*,*,#569,.F.);
#745=ORIENTED_EDGE('',*,*,#567,.T.);
#746=ORIENTED_EDGE('',*,*,#570,.T.);
#747=ORIENTED_EDGE('',*,*,#571,.T.);
#748=ORIENTED_EDGE('',*,*,#572,.F.);
#749=ORIENTED_EDGE('',*,*,#573,.F.);
#750=ORIENTED_EDGE('',*,*,#574,.T.);
#751=ORIENTED_EDGE('',*,*,#575,.F.);
#752=ORIENTED_EDGE('',*,*,#576,.T.);
#753=ORIENTED_EDGE('',*,*,#577,.F.);
#754=ORIENTED_EDGE('',*,*,#578,.F.);
#755=ORIENTED_EDGE('',*,*,#579,.F.);
#756=ORIENTED_EDGE('',*,*,#580,.F.);
#757=ORIENTED_EDGE('',*,*,#581,.F.);
#758=ORIENTED_EDGE('',*,*,#582,.F.);
#759=ORIENTED_EDGE('',*,*,#583,.F.);
#760=ORIENTED_EDGE('',*,*,#584,.F.);
#761=ORIENTED_EDGE('',*,*,#585,.F.);
#762=ORIENTED_EDGE('',*,*,#558,.T.);
#763=ORIENTED_EDGE('',*,*,#559,.T.);
#764=ORIENTED_EDGE('',*,*,#553,.T.);
#765=ORIENTED_EDGE('',*,*,#555,.T.);
#766=ORIENTED_EDGE('',*,*,#586,.T.);
#767=ORIENTED_EDGE('',*,*,#587,.F.);
#768=ORIENTED_EDGE('',*,*,#588,.F.);
#769=ORIENTED_EDGE('',*,*,#589,.F.);
#770=ORIENTED_EDGE('',*,*,#590,.F.);
#771=ORIENTED_EDGE('',*,*,#591,.F.);
#772=ORIENTED_EDGE('',*,*,#589,.T.);
#773=ORIENTED_EDGE('',*,*,#592,.F.);
#774=ORIENTED_EDGE('',*,*,#578,.T.);
#775=ORIENTED_EDGE('',*,*,#592,.T.);
#776=ORIENTED_EDGE('',*,*,#593,.T.);
#777=ORIENTED_EDGE('',*,*,#594,.F.);
#778=ORIENTED_EDGE('',*,*,#579,.T.);
#779=ORIENTED_EDGE('',*,*,#594,.T.);
#780=ORIENTED_EDGE('',*,*,#595,.T.);
#781=ORIENTED_EDGE('',*,*,#596,.F.);
#782=ORIENTED_EDGE('',*,*,#580,.T.);
#783=ORIENTED_EDGE('',*,*,#596,.T.);
#784=ORIENTED_EDGE('',*,*,#575,.T.);
#785=ORIENTED_EDGE('',*,*,#597,.F.);
#786=ORIENTED_EDGE('',*,*,#581,.T.);
#787=ORIENTED_EDGE('',*,*,#597,.T.);
#788=ORIENTED_EDGE('',*,*,#598,.T.);
#789=ORIENTED_EDGE('',*,*,#599,.F.);
#790=ORIENTED_EDGE('',*,*,#582,.T.);
#791=ORIENTED_EDGE('',*,*,#599,.T.);
#792=ORIENTED_EDGE('',*,*,#600,.T.);
#793=ORIENTED_EDGE('',*,*,#601,.F.);
#794=ORIENTED_EDGE('',*,*,#583,.T.);
#795=ORIENTED_EDGE('',*,*,#601,.T.);
#796=ORIENTED_EDGE('',*,*,#602,.T.);
#797=ORIENTED_EDGE('',*,*,#603,.F.);
#798=ORIENTED_EDGE('',*,*,#584,.T.);
#799=ORIENTED_EDGE('',*,*,#591,.T.);
#800=ORIENTED_EDGE('',*,*,#577,.T.);
#801=ORIENTED_EDGE('',*,*,#603,.T.);
#802=ORIENTED_EDGE('',*,*,#604,.T.);
#803=ORIENTED_EDGE('',*,*,#605,.F.);
#804=ORIENTED_EDGE('',*,*,#590,.T.);
#805=ORIENTED_EDGE('',*,*,#604,.F.);
#806=ORIENTED_EDGE('',*,*,#606,.T.);
#807=ORIENTED_EDGE('',*,*,#607,.F.);
#808=ORIENTED_EDGE('',*,*,#542,.T.);
#809=ORIENTED_EDGE('',*,*,#540,.T.);
#810=ORIENTED_EDGE('',*,*,#608,.T.);
#811=ORIENTED_EDGE('',*,*,#609,.F.);
#812=ORIENTED_EDGE('',*,*,#606,.F.);
#813=ORIENTED_EDGE('',*,*,#602,.F.);
#814=ORIENTED_EDGE('',*,*,#610,.F.);
#815=ORIENTED_EDGE('',*,*,#611,.F.);
#816=ORIENTED_EDGE('',*,*,#610,.T.);
#817=ORIENTED_EDGE('',*,*,#600,.F.);
#818=ORIENTED_EDGE('',*,*,#612,.T.);
#819=ORIENTED_EDGE('',*,*,#613,.F.);
#820=ORIENTED_EDGE('',*,*,#576,.F.);
#821=ORIENTED_EDGE('',*,*,#595,.F.);
#822=ORIENTED_EDGE('',*,*,#614,.F.);
#823=ORIENTED_EDGE('',*,*,#615,.F.);
#824=ORIENTED_EDGE('',*,*,#614,.T.);
#825=ORIENTED_EDGE('',*,*,#593,.F.);
#826=ORIENTED_EDGE('',*,*,#588,.T.);
#827=ORIENTED_EDGE('',*,*,#616,.F.);
#828=ORIENTED_EDGE('',*,*,#612,.F.);
#829=ORIENTED_EDGE('',*,*,#598,.F.);
#830=ORIENTED_EDGE('',*,*,#574,.F.);
#831=ORIENTED_EDGE('',*,*,#617,.F.);
#832=ORIENTED_EDGE('',*,*,#563,.T.);
#833=ORIENTED_EDGE('',*,*,#566,.T.);
#834=ORIENTED_EDGE('',*,*,#568,.T.);
#835=ORIENTED_EDGE('',*,*,#572,.T.);
#836=ORIENTED_EDGE('',*,*,#618,.T.);
#837=ORIENTED_EDGE('',*,*,#619,.F.);
#838=ORIENTED_EDGE('',*,*,#586,.F.);
#839=ORIENTED_EDGE('',*,*,#554,.F.);
#840=ORIENTED_EDGE('',*,*,#546,.F.);
#841=ORIENTED_EDGE('',*,*,#620,.F.);
#842=ORIENTED_EDGE('',*,*,#621,.T.);
#843=ORIENTED_EDGE('',*,*,#570,.F.);
#844=ORIENTED_EDGE('',*,*,#569,.T.);
#845=ORIENTED_EDGE('',*,*,#564,.F.);
#846=ORIENTED_EDGE('',*,*,#561,.T.);
#847=ORIENTED_EDGE('',*,*,#622,.F.);
#848=ORIENTED_EDGE('',*,*,#516,.F.);
#849=ORIENTED_EDGE('',*,*,#507,.F.);
#850=ORIENTED_EDGE('',*,*,#623,.F.);
#851=ORIENTED_EDGE('',*,*,#624,.F.);
#852=ORIENTED_EDGE('',*,*,#544,.T.);
#853=ORIENTED_EDGE('',*,*,#510,.T.);
#854=ORIENTED_EDGE('',*,*,#518,.T.);
#855=ORIENTED_EDGE('',*,*,#625,.F.);
#856=ORIENTED_EDGE('',*,*,#608,.F.);
#857=ORIENTED_EDGE('',*,*,#539,.T.);
#858=ORIENTED_EDGE('',*,*,#529,.F.);
#859=ORIENTED_EDGE('',*,*,#626,.F.);
#860=ORIENTED_EDGE('',*,*,#527,.T.);
#861=ORIENTED_EDGE('',*,*,#537,.F.);
#862=ORIENTED_EDGE('',*,*,#627,.F.);
#863=ORIENTED_EDGE('',*,*,#628,.F.);
#864=ORIENTED_EDGE('',*,*,#629,.F.);
#865=ORIENTED_EDGE('',*,*,#512,.F.);
#866=ORIENTED_EDGE('',*,*,#504,.F.);
#867=ORIENTED_EDGE('',*,*,#630,.F.);
#868=ORIENTED_EDGE('',*,*,#627,.T.);
#869=ORIENTED_EDGE('',*,*,#536,.F.);
#870=ORIENTED_EDGE('',*,*,#535,.F.);
#871=ORIENTED_EDGE('',*,*,#532,.F.);
#872=ORIENTED_EDGE('',*,*,#520,.T.);
#873=ORIENTED_EDGE('',*,*,#631,.F.);
#874=ORIENTED_EDGE('',*,*,#618,.F.);
#875=ORIENTED_EDGE('',*,*,#571,.F.);
#876=ORIENTED_EDGE('',*,*,#621,.F.);
#877=ORIENTED_EDGE('',*,*,#632,.F.);
#878=ORIENTED_EDGE('',*,*,#623,.T.);
#879=ORIENTED_EDGE('',*,*,#513,.T.);
#880=ORIENTED_EDGE('',*,*,#629,.T.);
#881=ORIENTED_EDGE('',*,*,#616,.T.);
#882=ORIENTED_EDGE('',*,*,#631,.T.);
#883=ORIENTED_EDGE('',*,*,#620,.T.);
#884=ORIENTED_EDGE('',*,*,#632,.T.);
#885=ORIENTED_EDGE('',*,*,#628,.T.);
#886=ORIENTED_EDGE('',*,*,#519,.T.);
#887=ORIENTED_EDGE('',*,*,#523,.T.);
#888=ORIENTED_EDGE('',*,*,#541,.T.);
#889=ORIENTED_EDGE('',*,*,#607,.T.);
#890=ORIENTED_EDGE('',*,*,#611,.T.);
#891=ORIENTED_EDGE('',*,*,#491,.T.);
#892=ORIENTED_EDGE('',*,*,#609,.T.);
#893=ORIENTED_EDGE('',*,*,#625,.T.);
#894=ORIENTED_EDGE('',*,*,#528,.T.);
#895=ORIENTED_EDGE('',*,*,#626,.T.);
#896=ORIENTED_EDGE('',*,*,#630,.T.);
#897=ORIENTED_EDGE('',*,*,#503,.T.);
#898=ORIENTED_EDGE('',*,*,#543,.T.);
#899=ORIENTED_EDGE('',*,*,#556,.T.);
#900=ORIENTED_EDGE('',*,*,#585,.T.);
#901=ORIENTED_EDGE('',*,*,#605,.T.);
#902=ORIENTED_EDGE('',*,*,#500,.T.);
#903=ORIENTED_EDGE('',*,*,#613,.T.);
#904=ORIENTED_EDGE('',*,*,#615,.T.);
#905=ORIENTED_EDGE('',*,*,#587,.T.);
#906=ORIENTED_EDGE('',*,*,#619,.T.);
#907=ORIENTED_EDGE('',*,*,#545,.T.);
#908=ORIENTED_EDGE('',*,*,#624,.T.);
#909=ORIENTED_EDGE('',*,*,#517,.T.);
#910=ORIENTED_EDGE('',*,*,#514,.T.);
#911=ORIENTED_EDGE('',*,*,#622,.T.);
#912=ORIENTED_EDGE('',*,*,#560,.T.);
#913=ORIENTED_EDGE('',*,*,#617,.T.);
#914=ORIENTED_EDGE('',*,*,#573,.T.);
#915=ORIENTED_EDGE('',*,*,#494,.T.);
#916=ORIENTED_EDGE('',*,*,#497,.T.);
#917=CYLINDRICAL_SURFACE('',#1011,0.8115);
#918=CYLINDRICAL_SURFACE('',#1015,0.8115);
#919=CYLINDRICAL_SURFACE('',#1019,0.8115);
#920=CYLINDRICAL_SURFACE('',#1023,0.8115);
#921=CYLINDRICAL_SURFACE('',#1027,3.2);
#922=CYLINDRICAL_SURFACE('',#1034,3.2);
#923=CYLINDRICAL_SURFACE('',#1043,1.25);
#924=CYLINDRICAL_SURFACE('',#1046,1.25);
#925=CYLINDRICAL_SURFACE('',#1049,3.88);
#926=CYLINDRICAL_SURFACE('',#1055,0.5);
#927=CYLINDRICAL_SURFACE('',#1058,0.5);
#928=CYLINDRICAL_SURFACE('',#1061,0.5);
#929=CYLINDRICAL_SURFACE('',#1065,0.5);
#930=CYLINDRICAL_SURFACE('',#1068,3.5);
#931=CYLINDRICAL_SURFACE('',#1077,2.);
#932=CYLINDRICAL_SURFACE('',#1082,2.);
#933=CYLINDRICAL_SURFACE('',#1085,2.);
#934=CYLINDRICAL_SURFACE('',#1089,2.);
#935=CYLINDRICAL_SURFACE('',#1092,3.5);
#936=CYLINDRICAL_SURFACE('',#1096,3.5);
#937=CYLINDRICAL_SURFACE('',#1099,3.5);
#938=CYLINDRICAL_SURFACE('',#1104,3.2);
#939=CYLINDRICAL_SURFACE('',#1106,3.88);
#940=CYLINDRICAL_SURFACE('',#1110,3.2);
#941=ADVANCED_FACE('',(#51),#917,.F.);
#942=ADVANCED_FACE('',(#52),#23,.F.);
#943=ADVANCED_FACE('',(#53),#918,.F.);
#944=ADVANCED_FACE('',(#54),#24,.F.);
#945=ADVANCED_FACE('',(#55),#919,.F.);
#946=ADVANCED_FACE('',(#56),#25,.F.);
#947=ADVANCED_FACE('',(#57),#920,.F.);
#948=ADVANCED_FACE('',(#58),#26,.F.);
#949=ADVANCED_FACE('',(#59),#921,.F.);
#950=ADVANCED_FACE('',(#60),#27,.F.);
#951=ADVANCED_FACE('',(#61),#922,.F.);
#952=ADVANCED_FACE('',(#62),#28,.T.);
#953=ADVANCED_FACE('',(#63),#29,.F.);
#954=ADVANCED_FACE('',(#64),#30,.F.);
#955=ADVANCED_FACE('',(#65),#923,.F.);
#956=ADVANCED_FACE('',(#66),#31,.T.);
#957=ADVANCED_FACE('',(#67),#924,.F.);
#958=ADVANCED_FACE('',(#68),#32,.F.);
#959=ADVANCED_FACE('',(#69),#925,.F.);
#960=ADVANCED_FACE('',(#70),#33,.T.);
#961=ADVANCED_FACE('',(#71),#34,.F.);
#962=ADVANCED_FACE('',(#72),#926,.F.);
#963=ADVANCED_FACE('',(#73),#35,.F.);
#964=ADVANCED_FACE('',(#74),#927,.F.);
#965=ADVANCED_FACE('',(#75),#36,.T.);
#966=ADVANCED_FACE('',(#76),#928,.F.);
#967=ADVANCED_FACE('',(#77),#37,.T.);
#968=ADVANCED_FACE('',(#78),#929,.F.);
#969=ADVANCED_FACE('',(#79),#930,.T.);
#970=ADVANCED_FACE('',(#80),#38,.T.);
#971=ADVANCED_FACE('',(#81),#39,.T.);
#972=ADVANCED_FACE('',(#82),#931,.T.);
#973=ADVANCED_FACE('',(#83),#19,.F.);
#974=ADVANCED_FACE('',(#84),#932,.T.);
#975=ADVANCED_FACE('',(#85),#20,.F.);
#976=ADVANCED_FACE('',(#86),#933,.T.);
#977=ADVANCED_FACE('',(#87),#21,.F.);
#978=ADVANCED_FACE('',(#88),#934,.T.);
#979=ADVANCED_FACE('',(#89),#22,.F.);
#980=ADVANCED_FACE('',(#90),#935,.T.);
#981=ADVANCED_FACE('',(#91),#40,.T.);
#982=ADVANCED_FACE('',(#92),#936,.T.);
#983=ADVANCED_FACE('',(#93),#41,.T.);
#984=ADVANCED_FACE('',(#94),#937,.T.);
#985=ADVANCED_FACE('',(#95),#42,.T.);
#986=ADVANCED_FACE('',(#96),#43,.F.);
#987=ADVANCED_FACE('',(#97),#44,.T.);
#988=ADVANCED_FACE('',(#98),#938,.F.);
#989=ADVANCED_FACE('',(#99),#939,.F.);
#990=ADVANCED_FACE('',(#100),#45,.F.);
#991=ADVANCED_FACE('',(#101),#46,.T.);
#992=ADVANCED_FACE('',(#102),#47,.T.);
#993=ADVANCED_FACE('',(#103),#940,.F.);
#994=ADVANCED_FACE('',(#104,#15),#48,.T.);
#995=ADVANCED_FACE('',(#105,#16),#49,.T.);
#996=ADVANCED_FACE('',(#106,#17,#18),#50,.T.);
#997=CLOSED_SHELL('',(#941,#942,#943,#944,#945,#946,#947,#948,#949,#950,
#951,#952,#953,#954,#955,#956,#957,#958,#959,#960,#961,#962,#963,#964,#965,
#966,#967,#968,#969,#970,#971,#972,#973,#974,#975,#976,#977,#978,#979,#980,
#981,#982,#983,#984,#985,#986,#987,#988,#989,#990,#991,#992,#993,#994,#995,
#996));
#998=DERIVED_UNIT_ELEMENT(#1000,1.);
#999=DERIVED_UNIT_ELEMENT(#1743,-3.);
#1000=(
MASS_UNIT()
NAMED_UNIT(*)
SI_UNIT(.KILO.,.GRAM.)
);
#1001=DERIVED_UNIT((#998,#999));
#1002=MEASURE_REPRESENTATION_ITEM('density measure',
POSITIVE_RATIO_MEASURE(7850.),#1001);
#1003=PROPERTY_DEFINITION_REPRESENTATION(#1008,#1005);
#1004=PROPERTY_DEFINITION_REPRESENTATION(#1009,#1006);
#1005=REPRESENTATION('material name',(#1007),#1740);
#1006=REPRESENTATION('density',(#1002),#1740);
#1007=DESCRIPTIVE_REPRESENTATION_ITEM('Steel','Steel');
#1008=PROPERTY_DEFINITION('material property','material name',#1750);
#1009=PROPERTY_DEFINITION('material property','density of part',#1750);
#1010=AXIS2_PLACEMENT_3D('',#1415,#1115,#1116);
#1011=AXIS2_PLACEMENT_3D('',#1416,#1117,#1118);
#1012=AXIS2_PLACEMENT_3D('',#1418,#1119,#1120);
#1013=AXIS2_PLACEMENT_3D('',#1421,#1122,#1123);
#1014=AXIS2_PLACEMENT_3D('',#1422,#1124,#1125);
#1015=AXIS2_PLACEMENT_3D('',#1423,#1126,#1127);
#1016=AXIS2_PLACEMENT_3D('',#1425,#1128,#1129);
#1017=AXIS2_PLACEMENT_3D('',#1428,#1131,#1132);
#1018=AXIS2_PLACEMENT_3D('',#1429,#1133,#1134);
#1019=AXIS2_PLACEMENT_3D('',#1430,#1135,#1136);
#1020=AXIS2_PLACEMENT_3D('',#1432,#1137,#1138);
#1021=AXIS2_PLACEMENT_3D('',#1435,#1140,#1141);
#1022=AXIS2_PLACEMENT_3D('',#1436,#1142,#1143);
#1023=AXIS2_PLACEMENT_3D('',#1437,#1144,#1145);
#1024=AXIS2_PLACEMENT_3D('',#1439,#1146,#1147);
#1025=AXIS2_PLACEMENT_3D('',#1442,#1149,#1150);
#1026=AXIS2_PLACEMENT_3D('',#1443,#1151,#1152);
#1027=AXIS2_PLACEMENT_3D('',#1444,#1153,#1154);
#1028=AXIS2_PLACEMENT_3D('',#1447,#1155,#1156);
#1029=AXIS2_PLACEMENT_3D('',#1451,#1158,#1159);
#1030=AXIS2_PLACEMENT_3D('',#1453,#1161,#1162);
#1031=AXIS2_PLACEMENT_3D('',#1458,#1164,#1165);
#1032=AXIS2_PLACEMENT_3D('',#1462,#1167,#1168);
#1033=AXIS2_PLACEMENT_3D('',#1466,#1171,#1172);
#1034=AXIS2_PLACEMENT_3D('',#1467,#1173,#1174);
#1035=AXIS2_PLACEMENT_3D('',#1470,#1175,#1176);
#1036=AXIS2_PLACEMENT_3D('',#1473,#1179,#1180);
#1037=AXIS2_PLACEMENT_3D('',#1477,#1183,#1184);
#1038=AXIS2_PLACEMENT_3D('',#1486,#1189,#1190);
#1039=AXIS2_PLACEMENT_3D('',#1490,#1192,#1193);
#1040=AXIS2_PLACEMENT_3D('',#1494,#1195,#1196);
#1041=AXIS2_PLACEMENT_3D('',#1500,#1199,#1200);
#1042=AXIS2_PLACEMENT_3D('',#1503,#1202,#1203);
#1043=AXIS2_PLACEMENT_3D('',#1504,#1204,#1205);
#1044=AXIS2_PLACEMENT_3D('',#1506,#1206,#1207);
#1045=AXIS2_PLACEMENT_3D('',#1508,#1209,#1210);
#1046=AXIS2_PLACEMENT_3D('',#1512,#1213,#1214);
#1047=AXIS2_PLACEMENT_3D('',#1514,#1215,#1216);
#1048=AXIS2_PLACEMENT_3D('',#1516,#1218,#1219);
#1049=AXIS2_PLACEMENT_3D('',#1522,#1223,#1224);
#1050=AXIS2_PLACEMENT_3D('',#1525,#1226,#1227);
#1051=AXIS2_PLACEMENT_3D('',#1526,#1228,#1229);
#1052=AXIS2_PLACEMENT_3D('',#1536,#1234,#1235);
#1053=AXIS2_PLACEMENT_3D('',#1540,#1237,#1238);
#1054=AXIS2_PLACEMENT_3D('',#1542,#1240,#1241);
#1055=AXIS2_PLACEMENT_3D('',#1548,#1245,#1246);
#1056=AXIS2_PLACEMENT_3D('',#1551,#1248,#1249);
#1057=AXIS2_PLACEMENT_3D('',#1552,#1250,#1251);
#1058=AXIS2_PLACEMENT_3D('',#1558,#1255,#1256);
#1059=AXIS2_PLACEMENT_3D('',#1559,#1257,#1258);
#1060=AXIS2_PLACEMENT_3D('',#1560,#1259,#1260);
#1061=AXIS2_PLACEMENT_3D('',#1569,#1265,#1266);
#1062=AXIS2_PLACEMENT_3D('',#1571,#1267,#1268);
#1063=AXIS2_PLACEMENT_3D('',#1574,#1270,#1271);
#1064=AXIS2_PLACEMENT_3D('',#1575,#1272,#1273);
#1065=AXIS2_PLACEMENT_3D('',#1581,#1277,#1278);
#1066=AXIS2_PLACEMENT_3D('',#1583,#1279,#1280);
#1067=AXIS2_PLACEMENT_3D('',#1586,#1282,#1283);
#1068=AXIS2_PLACEMENT_3D('',#1587,#1284,#1285);
#1069=AXIS2_PLACEMENT_3D('',#1590,#1286,#1287);
#1070=AXIS2_PLACEMENT_3D('',#1594,#1289,#1290);
#1071=AXIS2_PLACEMENT_3D('',#1596,#1292,#1293);
#1072=AXIS2_PLACEMENT_3D('',#1599,#1294,#1295);
#1073=AXIS2_PLACEMENT_3D('',#1603,#1297,#1298);
#1074=AXIS2_PLACEMENT_3D('',#1607,#1300,#1301);
#1075=AXIS2_PLACEMENT_3D('',#1611,#1303,#1304);
#1076=AXIS2_PLACEMENT_3D('',#1613,#1306,#1307);
#1077=AXIS2_PLACEMENT_3D('',#1625,#1314,#1315);
#1078=AXIS2_PLACEMENT_3D('',#1626,#1316,#1317);
#1079=AXIS2_PLACEMENT_3D('',#1627,#1318,#1319);
#1080=AXIS2_PLACEMENT_3D('',#1638,#1320,#1321);
#1081=AXIS2_PLACEMENT_3D('',#1639,#1322,#1323);
#1082=AXIS2_PLACEMENT_3D('',#1640,#1324,#1325);
#1083=AXIS2_PLACEMENT_3D('',#1642,#1327,#1328);
#1084=AXIS2_PLACEMENT_3D('',#1652,#1329,#1330);
#1085=AXIS2_PLACEMENT_3D('',#1653,#1331,#1332);
#1086=AXIS2_PLACEMENT_3D('',#1656,#1334,#1335);
#1087=AXIS2_PLACEMENT_3D('',#1667,#1336,#1337);
#1088=AXIS2_PLACEMENT_3D('',#1668,#1338,#1339);
#1089=AXIS2_PLACEMENT_3D('',#1669,#1340,#1341);
#1090=AXIS2_PLACEMENT_3D('',#1672,#1343,#1344);
#1091=AXIS2_PLACEMENT_3D('',#1682,#1345,#1346);
#1092=AXIS2_PLACEMENT_3D('',#1683,#1347,#1348);
#1093=AXIS2_PLACEMENT_3D('',#1685,#1349,#1350);
#1094=AXIS2_PLACEMENT_3D('',#1687,#1352,#1353);
#1095=AXIS2_PLACEMENT_3D('',#1691,#1355,#1356);
#1096=AXIS2_PLACEMENT_3D('',#1694,#1359,#1360);
#1097=AXIS2_PLACEMENT_3D('',#1696,#1361,#1362);
#1098=AXIS2_PLACEMENT_3D('',#1698,#1364,#1365);
#1099=AXIS2_PLACEMENT_3D('',#1702,#1368,#1369);
#1100=AXIS2_PLACEMENT_3D('',#1703,#1370,#1371);
#1101=AXIS2_PLACEMENT_3D('',#1704,#1372,#1373);
#1102=AXIS2_PLACEMENT_3D('',#1709,#1377,#1378);
#1103=AXIS2_PLACEMENT_3D('',#1711,#1380,#1381);
#1104=AXIS2_PLACEMENT_3D('',#1718,#1386,#1387);
#1105=AXIS2_PLACEMENT_3D('',#1719,#1388,#1389);
#1106=AXIS2_PLACEMENT_3D('',#1720,#1390,#1391);
#1107=AXIS2_PLACEMENT_3D('',#1722,#1393,#1394);
#1108=AXIS2_PLACEMENT_3D('',#1726,#1397,#1398);
#1109=AXIS2_PLACEMENT_3D('',#1731,#1402,#1403);
#1110=AXIS2_PLACEMENT_3D('',#1733,#1405,#1406);
#1111=AXIS2_PLACEMENT_3D('',#1734,#1407,#1408);
#1112=AXIS2_PLACEMENT_3D('',#1735,#1409,#1410);
#1113=AXIS2_PLACEMENT_3D('',#1736,#1411,#1412);
#1114=AXIS2_PLACEMENT_3D('',#1737,#1413,#1414);
#1115=DIRECTION('axis',(0.,0.,1.));
#1116=DIRECTION('refdir',(1.,0.,0.));
#1117=DIRECTION('center_axis',(0.,0.,1.));
#1118=DIRECTION('ref_axis',(-1.,0.,0.));
#1119=DIRECTION('center_axis',(0.,0.,1.));
#1120=DIRECTION('ref_axis',(-1.,0.,0.));
#1121=DIRECTION('',(0.,0.,1.));
#1122=DIRECTION('center_axis',(0.,0.,1.));
#1123=DIRECTION('ref_axis',(-1.,0.,0.));
#1124=DIRECTION('center_axis',(0.,0.,1.));
#1125=DIRECTION('ref_axis',(-1.,0.,0.));
#1126=DIRECTION('center_axis',(0.,0.,1.));
#1127=DIRECTION('ref_axis',(-1.,0.,0.));
#1128=DIRECTION('center_axis',(0.,0.,1.));
#1129=DIRECTION('ref_axis',(-1.,0.,0.));
#1130=DIRECTION('',(0.,0.,1.));
#1131=DIRECTION('center_axis',(0.,0.,1.));
#1132=DIRECTION('ref_axis',(-1.,0.,0.));
#1133=DIRECTION('center_axis',(0.,0.,1.));
#1134=DIRECTION('ref_axis',(-1.,0.,0.));
#1135=DIRECTION('center_axis',(0.,0.,1.));
#1136=DIRECTION('ref_axis',(-1.,0.,0.));
#1137=DIRECTION('center_axis',(0.,0.,1.));
#1138=DIRECTION('ref_axis',(-1.,0.,0.));
#1139=DIRECTION('',(0.,0.,1.));
#1140=DIRECTION('center_axis',(0.,0.,1.));
#1141=DIRECTION('ref_axis',(-1.,0.,0.));
#1142=DIRECTION('center_axis',(0.,0.,1.));
#1143=DIRECTION('ref_axis',(-1.,0.,0.));
#1144=DIRECTION('center_axis',(0.,0.,1.));
#1145=DIRECTION('ref_axis',(-1.,0.,0.));
#1146=DIRECTION('center_axis',(0.,0.,1.));
#1147=DIRECTION('ref_axis',(-1.,0.,0.));
#1148=DIRECTION('',(0.,0.,1.));
#1149=DIRECTION('center_axis',(0.,0.,1.));
#1150=DIRECTION('ref_axis',(-1.,0.,0.));
#1151=DIRECTION('center_axis',(0.,0.,1.));
#1152=DIRECTION('ref_axis',(-1.,0.,0.));
#1153=DIRECTION('center_axis',(0.,0.,1.));
#1154=DIRECTION('ref_axis',(-0.707106781186548,0.707106781186548,0.));
#1155=DIRECTION('center_axis',(0.,0.,1.));
#1156=DIRECTION('ref_axis',(-0.707106781186548,0.707106781186548,0.));
#1157=DIRECTION('',(0.,0.,1.));
#1158=DIRECTION('center_axis',(0.,0.,1.));
#1159=DIRECTION('ref_axis',(-0.707106781186548,0.707106781186548,0.));
#1160=DIRECTION('',(0.,0.,-1.));
#1161=DIRECTION('center_axis',(0.,0.,1.));
#1162=DIRECTION('ref_axis',(-1.,0.,0.));
#1163=DIRECTION('',(0.,-1.,0.));
#1164=DIRECTION('center_axis',(0.,0.,1.));
#1165=DIRECTION('ref_axis',(0.707106781186548,-0.707106781186548,0.));
#1166=DIRECTION('',(-1.,0.,0.));
#1167=DIRECTION('center_axis',(0.,0.,1.));
#1168=DIRECTION('ref_axis',(-0.707106781186548,-0.707106781186548,0.));
#1169=DIRECTION('',(0.,1.,0.));
#1170=DIRECTION('',(1.,0.,0.));
#1171=DIRECTION('center_axis',(0.,0.,1.));
#1172=DIRECTION('ref_axis',(0.707106781186548,0.707106781186548,0.));
#1173=DIRECTION('center_axis',(0.,0.,1.));
#1174=DIRECTION('ref_axis',(0.707106781186548,-0.707106781186548,0.));
#1175=DIRECTION('center_axis',(0.,0.,1.));
#1176=DIRECTION('ref_axis',(0.707106781186548,-0.707106781186548,0.));
#1177=DIRECTION('',(0.,0.,1.));
#1178=DIRECTION('',(0.,0.,-1.));
#1179=DIRECTION('center_axis',(0.,1.,0.));
#1180=DIRECTION('ref_axis',(-1.,0.,0.));
#1181=DIRECTION('',(1.,0.,0.));
#1182=DIRECTION('',(0.,0.,-1.));
#1183=DIRECTION('center_axis',(1.,0.,0.));
#1184=DIRECTION('ref_axis',(0.,0.,1.));
#1185=DIRECTION('',(0.,1.,0.));
#1186=DIRECTION('',(0.,0.,-1.));
#1187=DIRECTION('',(0.,-1.,0.));
#1188=DIRECTION('',(0.,0.,-1.));
#1189=DIRECTION('center_axis',(0.,-1.,0.));
#1190=DIRECTION('ref_axis',(0.,0.,-1.));
#1191=DIRECTION('',(1.,0.,0.));
#1192=DIRECTION('center_axis',(0.,1.,0.));
#1193=DIRECTION('ref_axis',(0.707106781186547,0.,0.707106781186547));
#1194=DIRECTION('',(1.,0.,0.));
#1195=DIRECTION('center_axis',(0.,1.,0.));
#1196=DIRECTION('ref_axis',(-0.707106781186547,0.,0.707106781186547));
#1197=DIRECTION('',(0.,0.,1.));
#1198=DIRECTION('',(1.,0.,0.));
#1199=DIRECTION('center_axis',(0.,1.,0.));
#1200=DIRECTION('ref_axis',(-0.707106781186547,0.,0.707106781186548));
#1201=DIRECTION('',(-1.,0.,0.));
#1202=DIRECTION('center_axis',(0.,1.,0.));
#1203=DIRECTION('ref_axis',(0.707106781186548,0.,0.707106781186548));
#1204=DIRECTION('center_axis',(0.,1.,0.));
#1205=DIRECTION('ref_axis',(0.707106781186547,0.,0.707106781186547));
#1206=DIRECTION('center_axis',(0.,-1.,0.));
#1207=DIRECTION('ref_axis',(0.707106781186547,0.,0.707106781186547));
#1208=DIRECTION('',(0.,1.,0.));
#1209=DIRECTION('center_axis',(0.,0.,-1.));
#1210=DIRECTION('ref_axis',(-1.,0.,0.));
#1211=DIRECTION('',(0.,-1.,0.));
#1212=DIRECTION('',(-1.,0.,0.));
#1213=DIRECTION('center_axis',(0.,-1.,0.));
#1214=DIRECTION('ref_axis',(-0.707106781186547,0.,0.707106781186547));
#1215=DIRECTION('center_axis',(0.,-1.,0.));
#1216=DIRECTION('ref_axis',(-0.707106781186547,0.,0.707106781186547));
#1217=DIRECTION('',(0.,1.,0.));
#1218=DIRECTION('center_axis',(0.,0.,1.));
#1219=DIRECTION('ref_axis',(-1.,0.,0.));
#1220=DIRECTION('',(0.,1.,0.));
#1221=DIRECTION('',(0.,-1.,0.));
#1222=DIRECTION('',(-1.,0.,0.));
#1223=DIRECTION('center_axis',(0.,-1.,0.));
#1224=DIRECTION('ref_axis',(0.707106781186548,0.,0.707106781186548));
#1225=DIRECTION('',(0.,1.,0.));
#1226=DIRECTION('center_axis',(0.,-1.,0.));
#1227=DIRECTION('ref_axis',(0.707106781186548,0.,0.707106781186548));
#1228=DIRECTION('center_axis',(1.,0.,0.));
#1229=DIRECTION('ref_axis',(0.,1.,0.));
#1230=DIRECTION('',(0.,-1.,0.));
#1231=DIRECTION('',(0.,0.,1.));
#1232=DIRECTION('',(0.,-1.,0.));
#1233=DIRECTION('',(0.,0.,1.));
#1234=DIRECTION('center_axis',(1.,0.,0.));
#1235=DIRECTION('ref_axis',(0.,-0.707106781186548,0.707106781186548));
#1236=DIRECTION('',(0.,1.,0.));
#1237=DIRECTION('center_axis',(1.,0.,0.));
#1238=DIRECTION('ref_axis',(0.,0.707106781186551,0.707106781186544));
#1239=DIRECTION('',(0.,0.,-1.));
#1240=DIRECTION('center_axis',(0.,0.,1.));
#1241=DIRECTION('ref_axis',(0.,-1.,0.));
#1242=DIRECTION('',(-1.,0.,0.));
#1243=DIRECTION('',(1.,0.,0.));
#1244=DIRECTION('',(0.,-1.,0.));
#1245=DIRECTION('center_axis',(1.,0.,0.));
#1246=DIRECTION('ref_axis',(0.,-0.707106781186548,0.707106781186548));
#1247=DIRECTION('',(-1.,0.,0.));
#1248=DIRECTION('center_axis',(1.,0.,0.));
#1249=DIRECTION('ref_axis',(0.,-0.707106781186548,0.707106781186548));
#1250=DIRECTION('center_axis',(0.,1.,0.));
#1251=DIRECTION('ref_axis',(0.,0.,1.));
#1252=DIRECTION('',(-1.,0.,0.));
#1253=DIRECTION('',(1.,0.,0.));
#1254=DIRECTION('',(0.,0.,1.));
#1255=DIRECTION('center_axis',(1.,0.,0.));
#1256=DIRECTION('ref_axis',(0.,0.707106781186551,0.707106781186544));
#1257=DIRECTION('center_axis',(1.,0.,0.));
#1258=DIRECTION('ref_axis',(0.,0.707106781186551,0.707106781186544));
#1259=DIRECTION('center_axis',(0.,1.,0.));
#1260=DIRECTION('ref_axis',(0.,0.,-1.));
#1261=DIRECTION('',(1.,0.,0.));
#1262=DIRECTION('',(0.,0.,-1.));
#1263=DIRECTION('',(-1.,0.,0.));
#1264=DIRECTION('',(0.,0.,1.));
#1265=DIRECTION('center_axis',(-1.,0.,0.));
#1266=DIRECTION('ref_axis',(0.,-0.707106781186548,0.707106781186548));
#1267=DIRECTION('center_axis',(-1.,0.,0.));
#1268=DIRECTION('ref_axis',(0.,-0.707106781186548,0.707106781186548));
#1269=DIRECTION('',(1.,0.,0.));
#1270=DIRECTION('center_axis',(-1.,0.,0.));
#1271=DIRECTION('ref_axis',(0.,-0.707106781186548,0.707106781186548));
#1272=DIRECTION('center_axis',(0.,0.,-1.));
#1273=DIRECTION('ref_axis',(0.,-1.,0.));
#1274=DIRECTION('',(-1.,0.,0.));
#1275=DIRECTION('',(0.,1.,0.));
#1276=DIRECTION('',(0.,-1.,0.));
#1277=DIRECTION('center_axis',(-1.,0.,0.));
#1278=DIRECTION('ref_axis',(0.,0.707106781186548,0.707106781186548));
#1279=DIRECTION('center_axis',(-1.,0.,0.));
#1280=DIRECTION('ref_axis',(0.,0.707106781186548,0.707106781186548));
#1281=DIRECTION('',(1.,0.,0.));
#1282=DIRECTION('center_axis',(-1.,0.,0.));
#1283=DIRECTION('ref_axis',(0.,0.707106781186548,0.707106781186548));
#1284=DIRECTION('center_axis',(0.,0.,1.));
#1285=DIRECTION('ref_axis',(0.707106781186548,-0.707106781186548,0.));
#1286=DIRECTION('center_axis',(0.,0.,-1.));
#1287=DIRECTION('ref_axis',(0.707106781186548,-0.707106781186548,0.));
#1288=DIRECTION('',(0.,0.,1.));
#1289=DIRECTION('center_axis',(0.,0.,1.));
#1290=DIRECTION('ref_axis',(0.707106781186548,-0.707106781186547,0.));
#1291=DIRECTION('',(0.,0.,-1.));
#1292=DIRECTION('center_axis',(0.,0.,1.));
#1293=DIRECTION('ref_axis',(1.,0.,0.));
#1294=DIRECTION('center_axis',(0.,0.,-1.));
#1295=DIRECTION('ref_axis',(-0.707106781186547,0.707106781186548,0.));
#1296=DIRECTION('',(0.,1.,0.));
#1297=DIRECTION('center_axis',(0.,0.,-1.));
#1298=DIRECTION('ref_axis',(-0.707106781186548,-0.707106781186547,0.));
#1299=DIRECTION('',(-1.,0.,0.));
#1300=DIRECTION('center_axis',(0.,0.,-1.));
#1301=DIRECTION('ref_axis',(0.707106781186548,-0.707106781186547,0.));
#1302=DIRECTION('',(0.,-1.,0.));
#1303=DIRECTION('center_axis',(0.,0.,-1.));
#1304=DIRECTION('ref_axis',(0.707106781186548,0.707106781186547,0.));
#1305=DIRECTION('',(1.,0.,0.));
#1306=DIRECTION('center_axis',(-1.,0.,0.));
#1307=DIRECTION('ref_axis',(0.,-1.,0.));
#1308=DIRECTION('',(0.,1.,0.));
#1309=DIRECTION('',(0.,0.,-1.));
#1310=DIRECTION('',(0.,1.,0.));
#1311=DIRECTION('',(0.,0.,-1.));
#1312=DIRECTION('',(0.,-1.,0.));
#1313=DIRECTION('',(0.,0.,1.));
#1314=DIRECTION('center_axis',(0.,1.,0.));
#1315=DIRECTION('ref_axis',(-0.707106781186549,0.,0.707106781186546));
#1316=DIRECTION('center_axis',(0.,1.,0.));
#1317=DIRECTION('ref_axis',(-1.,0.,0.));
#1318=DIRECTION('center_axis',(0.,-1.,0.));
#1319=DIRECTION('ref_axis',(0.,0.,1.));
#1320=DIRECTION('center_axis',(0.,0.,1.));
#1321=DIRECTION('ref_axis',(-0.707106781186548,-0.707106781186547,0.));
#1322=DIRECTION('center_axis',(1.,0.,0.));
#1323=DIRECTION('ref_axis',(0.,0.,1.));
#1324=DIRECTION('center_axis',(-1.,0.,0.));
#1325=DIRECTION('ref_axis',(0.,-0.707106781186548,0.707106781186548));
#1326=DIRECTION('',(1.,0.,0.));
#1327=DIRECTION('center_axis',(1.,0.,0.));
#1328=DIRECTION('ref_axis',(0.,0.,1.));
#1329=DIRECTION('center_axis',(0.,1.,0.));
#1330=DIRECTION('ref_axis',(0.,0.,1.));
#1331=DIRECTION('center_axis',(0.,-1.,0.));
#1332=DIRECTION('ref_axis',(0.707106781186546,0.,0.707106781186549));
#1333=DIRECTION('',(0.,1.,0.));
#1334=DIRECTION('center_axis',(0.,1.,0.));
#1335=DIRECTION('ref_axis',(0.,0.,1.));
#1336=DIRECTION('center_axis',(0.,0.,1.));
#1337=DIRECTION('ref_axis',(0.707106781186548,0.707106781186547,0.));
#1338=DIRECTION('center_axis',(-1.,0.,0.));
#1339=DIRECTION('ref_axis',(0.,0.,1.));
#1340=DIRECTION('center_axis',(-1.,0.,0.));
#1341=DIRECTION('ref_axis',(0.,0.707106781186548,0.707106781186548));
#1342=DIRECTION('',(-1.,0.,0.));
#1343=DIRECTION('center_axis',(-1.,0.,0.));
#1344=DIRECTION('ref_axis',(0.,0.,1.));
#1345=DIRECTION('center_axis',(0.,0.,1.));
#1346=DIRECTION('ref_axis',(-0.707106781186547,0.707106781186548,0.));
#1347=DIRECTION('center_axis',(0.,0.,-1.));
#1348=DIRECTION('ref_axis',(-0.707106781186547,0.707106781186548,0.));
#1349=DIRECTION('center_axis',(0.,0.,-1.));
#1350=DIRECTION('ref_axis',(-0.707106781186547,0.707106781186548,0.));
#1351=DIRECTION('',(0.,0.,-1.));
#1352=DIRECTION('center_axis',(0.,1.,0.));
#1353=DIRECTION('ref_axis',(-1.,0.,0.));
#1354=DIRECTION('',(1.,0.,0.));
#1355=DIRECTION('center_axis',(0.,-1.,0.));
#1356=DIRECTION('ref_axis',(-0.707106781186547,0.,0.707106781186548));
#1357=DIRECTION('',(1.,0.,0.));
#1358=DIRECTION('',(0.,0.,1.));
#1359=DIRECTION('center_axis',(0.,0.,1.));
#1360=DIRECTION('ref_axis',(0.707106781186548,0.707106781186547,0.));
#1361=DIRECTION('center_axis',(0.,0.,-1.));
#1362=DIRECTION('ref_axis',(0.707106781186548,0.707106781186547,0.));
#1363=DIRECTION('',(0.,0.,-1.));
#1364=DIRECTION('center_axis',(0.,-1.,0.));
#1365=DIRECTION('ref_axis',(0.,0.,-1.));
#1366=DIRECTION('',(-1.,0.,0.));
#1367=DIRECTION('',(0.,0.,1.));
#1368=DIRECTION('center_axis',(0.,0.,1.));
#1369=DIRECTION('ref_axis',(-0.707106781186548,-0.707106781186548,0.));
#1370=DIRECTION('center_axis',(0.,0.,-1.));
#1371=DIRECTION('ref_axis',(-0.707106781186548,-0.707106781186548,0.));
#1372=DIRECTION('center_axis',(1.,0.,0.));
#1373=DIRECTION('ref_axis',(0.,1.,0.));
#1374=DIRECTION('',(0.,-1.,0.));
#1375=DIRECTION('',(0.,-1.,0.));
#1376=DIRECTION('',(0.,0.,-1.));
#1377=DIRECTION('center_axis',(0.,-1.,0.));
#1378=DIRECTION('ref_axis',(0.,0.,-1.));
#1379=DIRECTION('',(1.,0.,0.));
#1380=DIRECTION('center_axis',(-1.,0.,0.));
#1381=DIRECTION('ref_axis',(0.,-1.,0.));
#1382=DIRECTION('',(0.,1.,0.));
#1383=DIRECTION('',(0.,0.,1.));
#1384=DIRECTION('',(0.,1.,0.));
#1385=DIRECTION('',(0.,0.,1.));
#1386=DIRECTION('center_axis',(0.,0.,1.));
#1387=DIRECTION('ref_axis',(-0.707106781186548,-0.707106781186548,0.));
#1388=DIRECTION('center_axis',(0.,0.,1.));
#1389=DIRECTION('ref_axis',(-0.707106781186548,-0.707106781186548,0.));
#1390=DIRECTION('center_axis',(0.,-1.,0.));
#1391=DIRECTION('ref_axis',(-0.707106781186547,0.,0.707106781186548));
#1392=DIRECTION('',(0.,-1.,0.));
#1393=DIRECTION('center_axis',(-1.,0.,0.));
#1394=DIRECTION('ref_axis',(0.,0.,-1.));
#1395=DIRECTION('',(0.,-1.,0.));
#1396=DIRECTION('',(0.,0.,1.));
#1397=DIRECTION('center_axis',(0.,-1.,0.));
#1398=DIRECTION('ref_axis',(1.,0.,0.));
#1399=DIRECTION('',(-1.,0.,0.));
#1400=DIRECTION('',(0.,0.,-1.));
#1401=DIRECTION('',(-1.,0.,0.));
#1402=DIRECTION('center_axis',(0.,-1.,0.));
#1403=DIRECTION('ref_axis',(0.,0.,1.));
#1404=DIRECTION('',(-1.,0.,0.));
#1405=DIRECTION('center_axis',(0.,0.,1.));
#1406=DIRECTION('ref_axis',(0.707106781186548,0.707106781186548,0.));
#1407=DIRECTION('center_axis',(0.,0.,1.));
#1408=DIRECTION('ref_axis',(0.707106781186548,0.707106781186548,0.));
#1409=DIRECTION('center_axis',(0.,0.,-1.));
#1410=DIRECTION('ref_axis',(-1.,0.,0.));
#1411=DIRECTION('center_axis',(0.,0.,-1.));
#1412=DIRECTION('ref_axis',(-1.,0.,0.));
#1413=DIRECTION('center_axis',(0.,0.,-1.));
#1414=DIRECTION('ref_axis',(-1.,0.,0.));
#1415=CARTESIAN_POINT('',(0.,0.,0.));
#1416=CARTESIAN_POINT('Origin',(46.5000007003546,34.,13.275));
#1417=CARTESIAN_POINT('',(47.3115007003546,34.,8.35000000000001));
#1418=CARTESIAN_POINT('Origin',(46.5000007003546,34.,8.35000000000001));
#1419=CARTESIAN_POINT('',(47.3115007003546,34.,18.2));
#1420=CARTESIAN_POINT('',(47.3115007003546,34.,13.275));
#1421=CARTESIAN_POINT('Origin',(46.5000007003546,34.,18.2));
#1422=CARTESIAN_POINT('Origin',(46.5000007003546,34.,18.2));
#1423=CARTESIAN_POINT('Origin',(-46.4999992996454,-34.,13.275));
#1424=CARTESIAN_POINT('',(-45.6884992996454,-34.,8.35000000000001));
#1425=CARTESIAN_POINT('Origin',(-46.4999992996454,-34.,8.35000000000001));
#1426=CARTESIAN_POINT('',(-45.6884992996454,-34.,18.2));
#1427=CARTESIAN_POINT('',(-45.6884992996454,-34.,13.275));
#1428=CARTESIAN_POINT('Origin',(-46.4999992996454,-34.,18.2));
#1429=CARTESIAN_POINT('Origin',(-46.4999992996454,-34.,18.2));
#1430=CARTESIAN_POINT('Origin',(46.5000007003546,-34.,13.275));
#1431=CARTESIAN_POINT('',(47.3115007003546,-34.,8.35000000000001));
#1432=CARTESIAN_POINT('Origin',(46.5000007003546,-34.,8.35000000000001));
#1433=CARTESIAN_POINT('',(47.3115007003546,-34.,18.2));
#1434=CARTESIAN_POINT('',(47.3115007003546,-34.,13.275));
#1435=CARTESIAN_POINT('Origin',(46.5000007003546,-34.,18.2));
#1436=CARTESIAN_POINT('Origin',(46.5000007003546,-34.,18.2));
#1437=CARTESIAN_POINT('Origin',(-46.4999992996454,34.,13.275));
#1438=CARTESIAN_POINT('',(-45.6884992996454,34.,8.35000000000001));
#1439=CARTESIAN_POINT('Origin',(-46.4999992996454,34.,8.35000000000001));
#1440=CARTESIAN_POINT('',(-45.6884992996454,34.,18.2));
#1441=CARTESIAN_POINT('',(-45.6884992996454,34.,13.275));
#1442=CARTESIAN_POINT('Origin',(-46.4999992996454,34.,18.2));
#1443=CARTESIAN_POINT('Origin',(-46.4999992996454,34.,18.2));
#1444=CARTESIAN_POINT('Origin',(-41.7999992996454,29.2999994859099,1.99999999999999));
#1445=CARTESIAN_POINT('',(-41.7999992996454,32.4999994859099,8.35000000000001));
#1446=CARTESIAN_POINT('',(-44.9999992996454,29.2999994859099,8.35000000000001));
#1447=CARTESIAN_POINT('Origin',(-41.7999992996454,29.2999994859099,8.35000000000001));
#1448=CARTESIAN_POINT('',(-41.7999992996454,32.4999994859099,22.));
#1449=CARTESIAN_POINT('',(-41.7999992996454,32.4999994859099,1.99999999999999));
#1450=CARTESIAN_POINT('',(-44.9999992996454,29.2999994859099,22.));
#1451=CARTESIAN_POINT('Origin',(-41.7999992996454,29.2999994859099,22.));
#1452=CARTESIAN_POINT('',(-44.9999992996454,29.2999994859099,1.99999999999999));
#1453=CARTESIAN_POINT('Origin',(7.00354583216267E-7,-5.14090059411387E-7,
22.));
#1454=CARTESIAN_POINT('',(45.0000007003546,29.2999994859099,22.));
#1455=CARTESIAN_POINT('',(45.0000007003546,-29.3000005140901,22.));
#1456=CARTESIAN_POINT('',(45.0000007003546,-32.5000005140901,22.));
#1457=CARTESIAN_POINT('',(41.8000007003546,-32.5000005140901,22.));
#1458=CARTESIAN_POINT('Origin',(41.8000007003546,-29.3000005140901,22.));
#1459=CARTESIAN_POINT('',(-41.7999992996454,-32.5000005140901,22.));
#1460=CARTESIAN_POINT('',(-44.9999992996454,-32.5000005140901,22.));
#1461=CARTESIAN_POINT('',(-44.9999992996454,-29.3000005140901,22.));
#1462=CARTESIAN_POINT('Origin',(-41.7999992996454,-29.3000005140901,22.));
#1463=CARTESIAN_POINT('',(-44.9999992996454,32.4999994859099,22.));
#1464=CARTESIAN_POINT('',(41.8000007003546,32.4999994859099,22.));
#1465=CARTESIAN_POINT('',(45.0000007003546,32.4999994859099,22.));
#1466=CARTESIAN_POINT('Origin',(41.8000007003546,29.2999994859099,22.));
#1467=CARTESIAN_POINT('Origin',(41.8000007003546,-29.3000005140901,1.99999999999999));
#1468=CARTESIAN_POINT('',(41.8000007003546,-32.5000005140901,8.35000000000001));
#1469=CARTESIAN_POINT('',(45.0000007003546,-29.3000005140901,8.35000000000001));
#1470=CARTESIAN_POINT('Origin',(41.8000007003546,-29.3000005140901,8.35000000000001));
#1471=CARTESIAN_POINT('',(41.8000007003546,-32.5000005140901,1.99999999999999));
#1472=CARTESIAN_POINT('',(45.0000007003546,-29.3000005140901,1.99999999999999));
#1473=CARTESIAN_POINT('Origin',(45.0000007003546,-32.5000005140901,1.99999999999999));
#1474=CARTESIAN_POINT('',(-41.7999992996454,-32.5000005140901,8.35000000000001));
#1475=CARTESIAN_POINT('',(22.5000005252659,-32.5000005140901,8.35000000000001));
#1476=CARTESIAN_POINT('',(-41.7999992996454,-32.5000005140901,1.99999999999999));
#1477=CARTESIAN_POINT('Origin',(39.7499991171062,34.4999994859099,8.23));
#1478=CARTESIAN_POINT('',(39.7499991171062,32.4999994859099,8.35000000000001));
#1479=CARTESIAN_POINT('',(39.7499991171062,33.4999994859099,8.35000000000001));
#1480=CARTESIAN_POINT('',(39.7499991171062,17.249999742955,8.35000000000001));
#1481=CARTESIAN_POINT('',(39.7499991171062,32.4999994859099,8.96999977648258));
#1482=CARTESIAN_POINT('',(39.7499991171062,32.4999994859099,5.115));
#1483=CARTESIAN_POINT('',(39.7499991171062,33.4999994859099,8.96999977648258));
#1484=CARTESIAN_POINT('',(39.7499991171062,34.4999994859099,8.96999977648258));
#1485=CARTESIAN_POINT('',(39.7499991171062,33.4999994859099,9.22749994412065));
#1486=CARTESIAN_POINT('Origin',(34.999999217689,33.4999994859099,10.2249998882413));
#1487=CARTESIAN_POINT('',(41.7499862299108,33.4999994859099,8.35000000000001));
#1488=CARTESIAN_POINT('',(17.4999997839332,33.4999994859099,8.35000000000001));
#1489=CARTESIAN_POINT('',(38.4999991171062,33.4999994859099,10.2199997764826));
#1490=CARTESIAN_POINT('Origin',(38.4999991171062,33.4999994859099,8.96999977648258));
#1491=CARTESIAN_POINT('',(31.4999993182719,33.4999994859099,10.2199997764826));
#1492=CARTESIAN_POINT('',(37.3749991673976,33.4999994859099,10.2199997764826));
#1493=CARTESIAN_POINT('',(30.2499993182719,33.4999994859099,8.96999977648258));
#1494=CARTESIAN_POINT('Origin',(31.4999993182719,33.4999994859099,8.96999977648258));
#1495=CARTESIAN_POINT('',(30.2499993182719,33.4999994859099,8.35000000000001));
#1496=CARTESIAN_POINT('',(30.2499993182719,33.4999994859099,10.2374998323619));
#1497=CARTESIAN_POINT('',(28.2500122054673,33.4999994859099,8.35000000000001));
#1498=CARTESIAN_POINT('',(17.4999997839332,33.4999994859099,8.35000000000001));
#1499=CARTESIAN_POINT('',(32.1299993182719,33.4999994859099,12.2199997764826));
#1500=CARTESIAN_POINT('Origin',(32.1299993182719,33.4999994859099,8.33999977648258));
#1501=CARTESIAN_POINT('',(37.8699991171062,33.4999994859099,12.2199997764826));
#1502=CARTESIAN_POINT('',(41.7499991171062,33.4999994859099,12.2199997764826));
#1503=CARTESIAN_POINT('Origin',(37.8699991171062,33.4999994859099,8.33999977648258));
#1504=CARTESIAN_POINT('Origin',(38.4999991171062,34.4999994859099,8.96999977648258));
#1505=CARTESIAN_POINT('',(38.4999991171062,32.4999994859099,10.2199997764826));
#1506=CARTESIAN_POINT('Origin',(38.4999991171062,32.4999994859099,8.96999977648258));
#1507=CARTESIAN_POINT('',(38.4999991171062,34.4999994859099,10.2199997764826));
#1508=CARTESIAN_POINT('Origin',(39.7499991171062,34.4999994859099,10.2199997764826));
#1509=CARTESIAN_POINT('',(31.4999993182719,32.4999994859099,10.2199997764826));
#1510=CARTESIAN_POINT('',(31.4999993182719,34.4999994859099,10.2199997764826));
#1511=CARTESIAN_POINT('',(-2.62500009126961,32.4999994859099,10.2199997764826));
#1512=CARTESIAN_POINT('Origin',(31.4999993182719,34.4999994859099,8.96999977648258));
#1513=CARTESIAN_POINT('',(30.2499993182719,32.4999994859099,8.96999977648258));
#1514=CARTESIAN_POINT('Origin',(31.4999993182719,32.4999994859099,8.96999977648258));
#1515=CARTESIAN_POINT('',(30.2499993182719,34.4999994859099,8.96999977648258));
#1516=CARTESIAN_POINT('Origin',(41.7499991171062,34.4999994859099,12.2199997764826));
#1517=CARTESIAN_POINT('',(37.8699991171062,37.4999994859099,12.2199997764826));
#1518=CARTESIAN_POINT('',(37.8699991171062,34.4999994859099,12.2199997764826));
#1519=CARTESIAN_POINT('',(32.1299993182719,37.4999994859099,12.2199997764826));
#1520=CARTESIAN_POINT('',(32.1299993182719,34.4999994859099,12.2199997764826));
#1521=CARTESIAN_POINT('',(44.3749999087304,37.4999994859099,12.2199997764826));
#1522=CARTESIAN_POINT('Origin',(37.8699991171062,34.4999994859099,8.33999977648258));
#1523=CARTESIAN_POINT('',(41.7499862299108,37.4999994859099,8.35000000000001));
#1524=CARTESIAN_POINT('',(41.7499862299108,34.4999994859099,8.35000000000001));
#1525=CARTESIAN_POINT('Origin',(37.8699991171062,37.4999994859099,8.33999977648258));
#1526=CARTESIAN_POINT('Origin',(-44.9999992996454,-32.5000005140901,1.99999999999999));
#1527=CARTESIAN_POINT('',(-44.9999992996454,-11.7448349283631,8.35000000000001));
#1528=CARTESIAN_POINT('',(-44.9999992996454,-16.250000257045,8.35000000000001));
#1529=CARTESIAN_POINT('',(-44.9999992996454,-29.3000005140901,8.35000000000001));
#1530=CARTESIAN_POINT('',(-44.9999992996454,-29.3000005140901,1.99999999999999));
#1531=CARTESIAN_POINT('',(-44.9999992996454,-29.2548349283631,8.35000000000001));
#1532=CARTESIAN_POINT('',(-44.9999992996454,-16.250000257045,8.35000000000001));
#1533=CARTESIAN_POINT('',(-44.9999992996454,-29.2548349283631,20.27));
#1534=CARTESIAN_POINT('',(-44.9999992996454,-29.2548349283631,11.385));
#1535=CARTESIAN_POINT('',(-44.9999992996454,-28.7548349283631,20.77));
#1536=CARTESIAN_POINT('Origin',(-44.9999992996454,-28.7548349283631,20.27));
#1537=CARTESIAN_POINT('',(-44.9999992996454,-12.2448349283631,20.77));
#1538=CARTESIAN_POINT('',(-44.9999992996454,-22.1224177212266,20.77));
#1539=CARTESIAN_POINT('',(-44.9999992996454,-11.7448349283631,20.27));
#1540=CARTESIAN_POINT('Origin',(-44.9999992996454,-12.2448349283631,20.27));
#1541=CARTESIAN_POINT('',(-44.9999992996454,-11.7448349283631,5.115));
#1542=CARTESIAN_POINT('Origin',(-46.9999992996454,-11.7448349283631,20.77));
#1543=CARTESIAN_POINT('',(-49.9999992996454,-12.2448349283631,20.77));
#1544=CARTESIAN_POINT('',(-46.9999992996454,-12.2448349283631,20.77));
#1545=CARTESIAN_POINT('',(-49.9999992996454,-28.7548349283631,20.77));
#1546=CARTESIAN_POINT('',(-46.9999992996454,-28.7548349283631,20.77));
#1547=CARTESIAN_POINT('',(-49.9999992996454,11.3775822787734,20.77));
#1548=CARTESIAN_POINT('Origin',(-46.9999992996454,-28.7548349283631,20.27));
#1549=CARTESIAN_POINT('',(-49.9999992996454,-29.2548349283631,20.27));
#1550=CARTESIAN_POINT('',(-46.9999992996454,-29.2548349283631,20.27));
#1551=CARTESIAN_POINT('Origin',(-49.9999992996454,-28.7548349283631,20.27));
#1552=CARTESIAN_POINT('Origin',(-46.9999992996454,-11.7448349283631,8.23));
#1553=CARTESIAN_POINT('',(-49.9999992996454,-11.7448349283631,8.35000000000001));
#1554=CARTESIAN_POINT('',(-23.4999994747341,-11.7448349283631,8.35000000000001));
#1555=CARTESIAN_POINT('',(-49.9999992996454,-11.7448349283631,20.27));
#1556=CARTESIAN_POINT('',(-46.9999992996454,-11.7448349283631,20.27));
#1557=CARTESIAN_POINT('',(-49.9999992996454,-11.7448349283631,4.115));
#1558=CARTESIAN_POINT('Origin',(-46.9999992996454,-12.2448349283631,20.27));
#1559=CARTESIAN_POINT('Origin',(-49.9999992996454,-12.2448349283631,20.27));
#1560=CARTESIAN_POINT('Origin',(47.0000007003546,-29.2548349283631,20.77));
#1561=CARTESIAN_POINT('',(45.0000007003546,-29.2548349283631,8.35000000000001));
#1562=CARTESIAN_POINT('',(50.0000007003546,-29.2548349283631,8.35000000000001));
#1563=CARTESIAN_POINT('',(23.5000005252659,-29.2548349283631,8.35000000000001));
#1564=CARTESIAN_POINT('',(45.0000007003546,-29.2548349283631,20.27));
#1565=CARTESIAN_POINT('',(45.0000007003546,-29.2548349283631,11.385));
#1566=CARTESIAN_POINT('',(50.0000007003546,-29.2548349283631,20.27));
#1567=CARTESIAN_POINT('',(47.0000007003546,-29.2548349283631,20.27));
#1568=CARTESIAN_POINT('',(50.0000007003546,-29.2548349283631,10.385));
#1569=CARTESIAN_POINT('Origin',(47.0000007003546,-28.7548349283631,20.27));
#1570=CARTESIAN_POINT('',(45.0000007003546,-28.7548349283631,20.77));
#1571=CARTESIAN_POINT('Origin',(45.0000007003546,-28.7548349283631,20.27));
#1572=CARTESIAN_POINT('',(50.0000007003546,-28.7548349283631,20.77));
#1573=CARTESIAN_POINT('',(47.0000007003546,-28.7548349283631,20.77));
#1574=CARTESIAN_POINT('Origin',(50.0000007003546,-28.7548349283631,20.27));
#1575=CARTESIAN_POINT('Origin',(47.0000007003546,-11.7448349283631,20.77));
#1576=CARTESIAN_POINT('',(50.0000007003546,-12.2448349283631,20.77));
#1577=CARTESIAN_POINT('',(45.0000007003546,-12.2448349283631,20.77));
#1578=CARTESIAN_POINT('',(47.0000007003546,-12.2448349283631,20.77));
#1579=CARTESIAN_POINT('',(50.0000007003546,-23.1224177212266,20.77));
#1580=CARTESIAN_POINT('',(45.0000007003546,10.3775822787734,20.77));
#1581=CARTESIAN_POINT('Origin',(47.0000007003546,-12.2448349283631,20.27));
#1582=CARTESIAN_POINT('',(45.0000007003546,-11.7448349283631,20.27));
#1583=CARTESIAN_POINT('Origin',(45.0000007003546,-12.2448349283631,20.27));
#1584=CARTESIAN_POINT('',(50.0000007003546,-11.7448349283631,20.27));
#1585=CARTESIAN_POINT('',(47.0000007003546,-11.7448349283631,20.27));
#1586=CARTESIAN_POINT('Origin',(50.0000007003546,-12.2448349283631,20.27));
#1587=CARTESIAN_POINT('Origin',(46.5000007003546,-34.,0.));
#1588=CARTESIAN_POINT('',(50.0000007003546,-34.,8.35000000000001));
#1589=CARTESIAN_POINT('',(46.5000007003546,-37.5,8.35000000000001));
#1590=CARTESIAN_POINT('Origin',(46.5000007003546,-34.,8.35000000000001));
#1591=CARTESIAN_POINT('',(50.0000007003546,-34.,22.));
#1592=CARTESIAN_POINT('',(50.0000007003546,-34.,0.));
#1593=CARTESIAN_POINT('',(46.5000007003546,-37.5,22.));
#1594=CARTESIAN_POINT('Origin',(46.5000007003546,-34.,22.));
#1595=CARTESIAN_POINT('',(46.5000007003546,-37.5,0.));
#1596=CARTESIAN_POINT('Origin',(7.00354583216267E-7,-5.14090059411387E-7,
24.));
#1597=CARTESIAN_POINT('',(-47.9999992996454,33.9999994859099,24.));
#1598=CARTESIAN_POINT('',(-46.4999992996454,35.4999994859099,24.));
#1599=CARTESIAN_POINT('Origin',(-46.4999992996454,33.9999994859099,24.));
#1600=CARTESIAN_POINT('',(-47.9999992996454,-34.,24.));
#1601=CARTESIAN_POINT('',(-47.9999992996454,17.2499994859099,24.));
#1602=CARTESIAN_POINT('',(-46.4999992996454,-35.5,24.));
#1603=CARTESIAN_POINT('Origin',(-46.4999992996454,-34.,24.));
#1604=CARTESIAN_POINT('',(46.5000007003546,-35.5,24.));
#1605=CARTESIAN_POINT('',(-23.4999992996454,-35.5,24.));
#1606=CARTESIAN_POINT('',(48.0000007003546,-34.,24.));
#1607=CARTESIAN_POINT('Origin',(46.5000007003546,-34.,24.));
#1608=CARTESIAN_POINT('',(48.0000007003546,33.9999994859099,24.));
#1609=CARTESIAN_POINT('',(48.0000007003546,-17.2500005140901,24.));
#1610=CARTESIAN_POINT('',(46.5000007003546,35.4999994859099,24.));
#1611=CARTESIAN_POINT('Origin',(46.5000007003546,33.9999994859099,24.));
#1612=CARTESIAN_POINT('',(23.5000007003546,35.4999994859099,24.));
#1613=CARTESIAN_POINT('Origin',(-49.9999992996454,34.4999994859099,0.));
#1614=CARTESIAN_POINT('',(-49.9999992996454,33.9999994859099,8.35000000000001));
#1615=CARTESIAN_POINT('',(-49.9999992996454,17.249999742955,8.35000000000001));
#1616=CARTESIAN_POINT('',(-49.9999992996454,-29.2548349283631,8.35000000000001));
#1617=CARTESIAN_POINT('',(-49.9999992996454,-29.2548349283631,10.385));
#1618=CARTESIAN_POINT('',(-49.9999992996454,-34.,8.35000000000001));
#1619=CARTESIAN_POINT('',(-49.9999992996454,17.249999742955,8.35000000000001));
#1620=CARTESIAN_POINT('',(-49.9999992996454,-34.,22.));
#1621=CARTESIAN_POINT('',(-49.9999992996454,-34.,0.));
#1622=CARTESIAN_POINT('',(-49.9999992996454,33.9999994859099,22.));
#1623=CARTESIAN_POINT('',(-49.9999992996454,17.2499994859099,22.));
#1624=CARTESIAN_POINT('',(-49.9999992996454,33.9999994859099,0.));
#1625=CARTESIAN_POINT('Origin',(-47.9999992996454,17.2499994859099,22.));
#1626=CARTESIAN_POINT('Origin',(-47.9999992996454,33.9999994859099,22.));
#1627=CARTESIAN_POINT('Origin',(-47.9999992996454,-34.,22.));
#1628=CARTESIAN_POINT('Ctrl Pts',(-46.4999992996454,-35.5,24.));
#1629=CARTESIAN_POINT('Ctrl Pts',(-47.9999992996454,-35.5,24.));
#1630=CARTESIAN_POINT('Ctrl Pts',(-47.9999992996454,-34.,24.));
#1631=CARTESIAN_POINT('Ctrl Pts',(-46.4999992996454,-37.5,24.));
#1632=CARTESIAN_POINT('Ctrl Pts',(-49.9999992996454,-37.5,24.));
#1633=CARTESIAN_POINT('Ctrl Pts',(-49.9999992996454,-34.,24.));
#1634=CARTESIAN_POINT('Ctrl Pts',(-46.4999992996454,-37.5,22.));
#1635=CARTESIAN_POINT('Ctrl Pts',(-49.9999992996454,-37.5,22.));
#1636=CARTESIAN_POINT('Ctrl Pts',(-49.9999992996454,-34.,22.));
#1637=CARTESIAN_POINT('',(-46.4999992996454,-37.5,22.));
#1638=CARTESIAN_POINT('Origin',(-46.4999992996454,-34.,22.));
#1639=CARTESIAN_POINT('Origin',(-46.4999992996454,-35.5,22.));
#1640=CARTESIAN_POINT('Origin',(-23.4999992996454,-35.5,22.));
#1641=CARTESIAN_POINT('',(-23.4999992996454,-37.5,22.));
#1642=CARTESIAN_POINT('Origin',(46.5000007003546,-35.5,22.));
#1643=CARTESIAN_POINT('Ctrl Pts',(48.0000007003546,-34.,24.));
#1644=CARTESIAN_POINT('Ctrl Pts',(48.0000007003546,-35.5,24.));
#1645=CARTESIAN_POINT('Ctrl Pts',(46.5000007003546,-35.5,24.));
#1646=CARTESIAN_POINT('Ctrl Pts',(50.0000007003546,-34.,24.));
#1647=CARTESIAN_POINT('Ctrl Pts',(50.0000007003546,-37.5,24.));
#1648=CARTESIAN_POINT('Ctrl Pts',(46.5000007003546,-37.5,24.));
#1649=CARTESIAN_POINT('Ctrl Pts',(50.0000007003546,-34.,22.));
#1650=CARTESIAN_POINT('Ctrl Pts',(50.0000007003546,-37.5,22.));
#1651=CARTESIAN_POINT('Ctrl Pts',(46.5000007003546,-37.5,22.));
#1652=CARTESIAN_POINT('Origin',(48.0000007003546,-34.,22.));
#1653=CARTESIAN_POINT('Origin',(48.0000007003546,-17.2500005140901,22.));
#1654=CARTESIAN_POINT('',(50.0000007003546,33.9999994859099,22.));
#1655=CARTESIAN_POINT('',(50.0000007003546,-17.2500005140901,22.));
#1656=CARTESIAN_POINT('Origin',(48.0000007003546,33.9999994859099,22.));
#1657=CARTESIAN_POINT('Ctrl Pts',(46.5000007003546,35.4999994859099,24.));
#1658=CARTESIAN_POINT('Ctrl Pts',(48.0000007003546,35.4999994859099,24.));
#1659=CARTESIAN_POINT('Ctrl Pts',(48.0000007003546,33.9999994859099,24.));
#1660=CARTESIAN_POINT('Ctrl Pts',(46.5000007003546,37.4999994859099,24.));
#1661=CARTESIAN_POINT('Ctrl Pts',(50.0000007003546,37.4999994859099,24.));
#1662=CARTESIAN_POINT('Ctrl Pts',(50.0000007003546,33.9999994859099,24.));
#1663=CARTESIAN_POINT('Ctrl Pts',(46.5000007003546,37.4999994859099,22.));
#1664=CARTESIAN_POINT('Ctrl Pts',(50.0000007003546,37.4999994859099,22.));
#1665=CARTESIAN_POINT('Ctrl Pts',(50.0000007003546,33.9999994859099,22.));
#1666=CARTESIAN_POINT('',(46.5000007003546,37.4999994859099,22.));
#1667=CARTESIAN_POINT('Origin',(46.5000007003546,33.9999994859099,22.));
#1668=CARTESIAN_POINT('Origin',(46.5000007003546,35.4999994859099,22.));
#1669=CARTESIAN_POINT('Origin',(23.5000007003546,35.4999994859099,22.));
#1670=CARTESIAN_POINT('',(-46.4999992996454,37.4999994859099,22.));
#1671=CARTESIAN_POINT('',(23.5000007003546,37.4999994859099,22.));
#1672=CARTESIAN_POINT('Origin',(-46.4999992996454,35.4999994859099,22.));
#1673=CARTESIAN_POINT('Ctrl Pts',(-47.9999992996454,33.9999994859099,24.));
#1674=CARTESIAN_POINT('Ctrl Pts',(-47.9999992996454,35.4999994859099,24.));
#1675=CARTESIAN_POINT('Ctrl Pts',(-46.4999992996454,35.4999994859099,24.));
#1676=CARTESIAN_POINT('Ctrl Pts',(-49.9999992996454,33.9999994859099,24.));
#1677=CARTESIAN_POINT('Ctrl Pts',(-49.9999992996454,37.4999994859099,24.));
#1678=CARTESIAN_POINT('Ctrl Pts',(-46.4999992996454,37.4999994859099,24.));
#1679=CARTESIAN_POINT('Ctrl Pts',(-49.9999992996454,33.9999994859099,22.));
#1680=CARTESIAN_POINT('Ctrl Pts',(-49.9999992996454,37.4999994859099,22.));
#1681=CARTESIAN_POINT('Ctrl Pts',(-46.4999992996454,37.4999994859099,22.));
#1682=CARTESIAN_POINT('Origin',(-46.4999992996454,33.9999994859099,22.));
#1683=CARTESIAN_POINT('Origin',(-46.4999992996454,33.9999994859099,0.));
#1684=CARTESIAN_POINT('',(-46.4999992996454,37.4999994859099,8.35000000000001));
#1685=CARTESIAN_POINT('Origin',(-46.4999992996454,33.9999994859099,8.35000000000001));
#1686=CARTESIAN_POINT('',(-46.4999992996454,37.4999994859099,0.));
#1687=CARTESIAN_POINT('Origin',(47.0000007003546,37.4999994859099,0.));
#1688=CARTESIAN_POINT('',(46.5000007003546,37.4999994859099,8.35000000000001));
#1689=CARTESIAN_POINT('',(23.5000005252659,37.4999994859099,8.35000000000001));
#1690=CARTESIAN_POINT('',(28.2500122054673,37.4999994859099,8.35000000000001));
#1691=CARTESIAN_POINT('Origin',(32.1299993182719,37.4999994859099,8.33999977648258));
#1692=CARTESIAN_POINT('',(23.5000005252659,37.4999994859099,8.35000000000001));
#1693=CARTESIAN_POINT('',(46.5000007003546,37.4999994859099,0.));
#1694=CARTESIAN_POINT('Origin',(46.5000007003546,33.9999994859099,0.));
#1695=CARTESIAN_POINT('',(50.0000007003546,33.9999994859099,8.35000000000001));
#1696=CARTESIAN_POINT('Origin',(46.5000007003546,33.9999994859099,8.35000000000001));
#1697=CARTESIAN_POINT('',(50.0000007003546,33.9999994859099,0.));
#1698=CARTESIAN_POINT('Origin',(-46.9999992996454,-37.5,0.));
#1699=CARTESIAN_POINT('',(-46.4999992996454,-37.5,8.35000000000001));
#1700=CARTESIAN_POINT('',(-23.4999994747341,-37.5,8.35000000000001));
#1701=CARTESIAN_POINT('',(-46.4999992996454,-37.5,0.));
#1702=CARTESIAN_POINT('Origin',(-46.4999992996454,-34.,0.));
#1703=CARTESIAN_POINT('Origin',(-46.4999992996454,-34.,8.35000000000001));
#1704=CARTESIAN_POINT('Origin',(50.0000007003546,-34.5000005140901,0.));
#1705=CARTESIAN_POINT('',(50.0000007003546,-11.7448349283631,8.35000000000001));
#1706=CARTESIAN_POINT('',(50.0000007003546,-17.250000257045,8.35000000000001));
#1707=CARTESIAN_POINT('',(50.0000007003546,-17.250000257045,8.35000000000001));
#1708=CARTESIAN_POINT('',(50.0000007003546,-11.7448349283631,4.115));
#1709=CARTESIAN_POINT('Origin',(-46.9999992996454,-29.2548349283631,20.77));
#1710=CARTESIAN_POINT('',(-23.4999994747341,-29.2548349283631,8.35000000000001));
#1711=CARTESIAN_POINT('Origin',(45.0000007003546,32.4999994859099,1.99999999999999));
#1712=CARTESIAN_POINT('',(45.0000007003546,-11.7448349283631,8.35000000000001));
#1713=CARTESIAN_POINT('',(45.0000007003546,29.2999994859099,8.35000000000001));
#1714=CARTESIAN_POINT('',(45.0000007003546,16.249999742955,8.35000000000001));
#1715=CARTESIAN_POINT('',(45.0000007003546,-11.7448349283631,5.115));
#1716=CARTESIAN_POINT('',(45.0000007003546,16.249999742955,8.35000000000001));
#1717=CARTESIAN_POINT('',(45.0000007003546,29.2999994859099,1.99999999999999));
#1718=CARTESIAN_POINT('Origin',(-41.7999992996454,-29.3000005140901,1.99999999999999));
#1719=CARTESIAN_POINT('Origin',(-41.7999992996454,-29.3000005140901,8.35000000000001));
#1720=CARTESIAN_POINT('Origin',(32.1299993182719,34.4999994859099,8.33999977648258));
#1721=CARTESIAN_POINT('',(28.2500122054673,34.4999994859099,8.35000000000001));
#1722=CARTESIAN_POINT('Origin',(30.2499993182719,34.4999994859099,10.2499997764826));
#1723=CARTESIAN_POINT('',(30.2499993182719,32.4999994859099,8.35000000000001));
#1724=CARTESIAN_POINT('',(30.2499993182719,17.249999742955,8.35000000000001));
#1725=CARTESIAN_POINT('',(30.2499993182719,32.4999994859099,6.1249998882413));
#1726=CARTESIAN_POINT('Origin',(-44.9999992996454,32.4999994859099,1.99999999999999));
#1727=CARTESIAN_POINT('',(41.8000007003546,32.4999994859099,8.35000000000001));
#1728=CARTESIAN_POINT('',(-22.4999994747341,32.4999994859099,8.35000000000001));
#1729=CARTESIAN_POINT('',(41.8000007003546,32.4999994859099,1.99999999999999));
#1730=CARTESIAN_POINT('',(-22.4999994747341,32.4999994859099,8.35000000000001));
#1731=CARTESIAN_POINT('Origin',(47.0000007003546,-11.7448349283631,8.23));
#1732=CARTESIAN_POINT('',(23.5000005252659,-11.7448349283631,8.35000000000001));
#1733=CARTESIAN_POINT('Origin',(41.8000007003546,29.2999994859099,1.99999999999999));
#1734=CARTESIAN_POINT('Origin',(41.8000007003546,29.2999994859099,8.35000000000001));
#1735=CARTESIAN_POINT('Origin',(3.50177291608134E-7,-2.22044604925031E-15,
8.35000000000001));
#1736=CARTESIAN_POINT('Origin',(3.50177291608134E-7,-2.22044604925031E-15,
8.35000000000001));
#1737=CARTESIAN_POINT('Origin',(3.50177291608134E-7,-2.22044604925031E-15,
8.35000000000001));
#1738=UNCERTAINTY_MEASURE_WITH_UNIT(LENGTH_MEASURE(0.01),#1742,
'DISTANCE_ACCURACY_VALUE',
'Maximum model space distance between geometric entities at asserted c
onnectivities');
#1739=UNCERTAINTY_MEASURE_WITH_UNIT(LENGTH_MEASURE(0.01),#1742,
'DISTANCE_ACCURACY_VALUE',
'Maximum model space distance between geometric entities at asserted c
onnectivities');
#1740=(
GEOMETRIC_REPRESENTATION_CONTEXT(3)
GLOBAL_UNCERTAINTY_ASSIGNED_CONTEXT((#1738))
GLOBAL_UNIT_ASSIGNED_CONTEXT((#1742,#1744,#1745))
REPRESENTATION_CONTEXT('','3D')
);
#1741=(
GEOMETRIC_REPRESENTATION_CONTEXT(3)
GLOBAL_UNCERTAINTY_ASSIGNED_CONTEXT((#1739))
GLOBAL_UNIT_ASSIGNED_CONTEXT((#1742,#1744,#1745))
REPRESENTATION_CONTEXT('','3D')
);
#1742=(
LENGTH_UNIT()
NAMED_UNIT(*)
SI_UNIT(.MILLI.,.METRE.)
);
#1743=(
LENGTH_UNIT()
NAMED_UNIT(*)
SI_UNIT($,.METRE.)
);
#1744=(
NAMED_UNIT(*)
PLANE_ANGLE_UNIT()
SI_UNIT($,.RADIAN.)
);
#1745=(
NAMED_UNIT(*)
SI_UNIT($,.STERADIAN.)
SOLID_ANGLE_UNIT()
);
#1746=SHAPE_DEFINITION_REPRESENTATION(#1747,#1748);
#1747=PRODUCT_DEFINITION_SHAPE('',$,#1750);
#1748=SHAPE_REPRESENTATION('',(#1010),#1740);
#1749=PRODUCT_DEFINITION_CONTEXT('part definition',#1754,'design');
#1750=PRODUCT_DEFINITION('2026-07-13-19-58-33-461','TopShell',#1751,#1749);
#1751=PRODUCT_DEFINITION_FORMATION('',$,#1756);
#1752=PRODUCT_RELATED_PRODUCT_CATEGORY('TopShell','TopShell',(#1756));
#1753=APPLICATION_PROTOCOL_DEFINITION('international standard',
'automotive_design',2009,#1754);
#1754=APPLICATION_CONTEXT(
'Core Data for Automotive Mechanical Design Process');
#1755=PRODUCT_CONTEXT('part definition',#1754,'mechanical');
#1756=PRODUCT('2026-07-13-19-58-33-461','TopShell',$,(#1755));
#1757=PRESENTATION_STYLE_ASSIGNMENT((#1758));
#1758=SURFACE_STYLE_USAGE(.BOTH.,#1759);
#1759=SURFACE_SIDE_STYLE('',(#1760));
#1760=SURFACE_STYLE_FILL_AREA(#1761);
#1761=FILL_AREA_STYLE('Aluminum - Bead Blasted',(#1762));
#1762=FILL_AREA_STYLE_COLOUR('Aluminum - Bead Blasted',#1763);
#1763=COLOUR_RGB('Aluminum - Bead Blasted',0.96078431372549,0.96078431372549,
0.964705882352941);
ENDSEC;
END-ISO-10303-21;
